<svg xmlns="http://www.w3.org/2000/svg" viewBox="0 0 2797.74 1576.11"><defs><style>.cls-1{fill:#ebf3fa;}.cls-2{fill:#cde0fb;}.cls-3{fill:#2e3552;}.cls-4{fill:#f99746;}.cls-5{fill:#c0d8fb;}.cls-6{fill:#233862;}.cls-7{fill:#ffb27d;}.cls-8{fill:#2b478b;}.cls-9{fill:#ed975d;}.cls-10{fill:#f9ddbf;}.cls-11{fill:#f2ccaa;}.cls-12{fill:#ed7d2b;}.cls-13{fill:#fff;}.cls-14{fill:#e8945b;}.cls-15{fill:#163560;}.cls-16{fill:#1c468a;}.cls-17{fill:#f1a34f;}.cls-18{fill:#d86713;}.cls-19{fill:#d9935c;}.cls-20{fill:#466aa5;}.cls-21{fill:#ef7e29;}.cls-22{fill:#ffa561;}</style></defs><g id="Ebene_2" data-name="Ebene 2"><g id="Слой_1" data-name="Слой 1"><path class="cls-1" d="M227.3,1569S-98.17,1172.82,60.89,764.94C164.58,499.08,553.51,353.4,773,499.08c93.48,62.05,393.41,2.09,553.55-254.79,311.2-499.17,1397.29-196,1199.56,570.4-95.68,370.88,291.21,384.36,94.08,755.1Z"/><path class="cls-2" d="M685.2,1046.16c-25.11-61.49,73-111.21,73-111.21s126.46,44.58,145.06,33.73-100.67-59.22-100.67-59.22c30.47-28.31,145.11-52,145.11-52s74.12,108.07,89.48,93-70.51-92.34-70.51-92.34c39.14-14.76,97.22-.31,97.22-.31,83.35,32.14,37.79,137.5,37.79,137.5s26.49,36.9,80.39,61.27h0s10.86,3.8,25.9,12.89l-8.68,6.63q-3.74-2.68-7.5-4.94s0,0,0,0l-.11-.06c-1.62-.89-3.93-2.15-6.77-3.66h0c-6.61-3.17-11.33-5.64-14.58-7.54l0,0c-20.39-10.23-48-22.72-59.09-21.34a21.09,21.09,0,0,0-1.18-5.4c.37,1.72.77,3.51,1.18,5.4,9.45,43.18-60.79,105.22-108.67,128.34s-38.75-2.33-30.93-38.3,58.34-66.64,66.46-84.6-17.71-10-43.69,13.19-18.7,61.33-60,99.62S795,1137.09,795,1137.09c38.07-13.95,80.3-73.08,74.32-85.31s-86.9,51.23-102.07,57.77S710.3,1107.64,685.2,1046.16Z"/><path class="cls-2" d="M1325.42,284.53c36.64-50.8,125.45,2.85,125.45,2.85s27.53,123.44,45.5,132.9-2.93-110.13-2.93-110.13c37.88,10.23,114.12,90.11,114.12,90.11s-49.42,113.29-29.67,118,38.64-102.55,38.64-102.55c31.36,23.93,48.82,77.62,48.82,77.62,15.94,82.73-91.11,98.93-91.11,98.93s-16.28,39.63-8.85,94.93h0s2.39,10.59,2.63,27.16l-9.64-3.63q.28-4.34.21-8.47a.07.07,0,0,0,0,0v-.12c-.1-1.74-.25-4.22-.46-7.25h0c-.78-6.88-1.16-11.89-1.26-15.44v0c-2-21.42-5.83-49.79-12.45-57.93a20,20,0,0,0,3.73-3.65l-3.73,3.65c-29.82,29.14-114.55,3.95-157-22.8s-17.5-32.17,15.19-43.89,82.45,13.37,100.88,10.89-.85-19.16-32.39-28.35S1412.72,553,1361.44,539s-53.92-121.26-53.92-121.26c30.19,23.49,98.58,27.72,105.38,16.82s-84.4-43.92-97.22-52.78S1288.78,335.34,1325.42,284.53Z"/><path class="cls-2" d="M2033.17,1456.86c90.66-18.64,72.1-170.83,72.1-170.83s-149.73-111.82-151.6-141.77,146.67,70.6,146.67,70.6c9.14-57.24-52.38-208.36-52.38-208.36s-182.62-2-177.07-31.46,161.61,10,161.61,10c-13.27-56.77-75.07-112.8-75.07-112.8-101.87-71.56-188.5,62.94-188.5,62.94s-63.28-2-133.31-45.54h0s-12.84-9.63-35-20l-.94,15.2q6,2.24,11.54,4.85a.09.09,0,0,1,.07,0l.16.08c2.28,1.18,5.53,2.89,9.48,5h0c8.8,5.2,15.31,8.76,20,11l0,0c27.67,15.67,63.59,38,70.56,51.85a29.24,29.24,0,0,1,7.17-2.82l-7.17,2.82c-57.34,22.56-74.66,152-64.28,225.39s32.77,43,68.35,6.09S1747.54,1070,1762,1046.63s25.32,12.76,18.61,60.83-56.49,69.23-68.74,146.79,130.82,146.08,130.82,146.08c-13.39-54.91,22.31-149.67,41.11-152.23s8.11,140.35,12.31,163S1942.51,1475.49,2033.17,1456.86Z"/><rect class="cls-3" y="1561.74" width="2797.74" height="11.68" rx="3.98"/><path class="cls-4" d="M1838.6,505.76H959.13A81.09,81.09,0,0,0,878,586.86v435.31a81.09,81.09,0,0,0,81.09,81.09H1477.5l141.21,261.11V1103.26H1838.6a81.1,81.1,0,0,0,81.1-81.09V586.86A81.1,81.1,0,0,0,1838.6,505.76Z"/><path class="cls-5" d="M1918.16,154.38h527.25c26.85,0,48.62,25.42,48.62,46.47v184c0,31.6-21.77,50.35-48.62,50.35H2134.64L2050,558V435.24H1918.16c-26.86,0-48.62-17.07-48.62-38.12V210.24C1869.54,174.83,1891.3,154.38,1918.16,154.38Z"/><path class="cls-1" d="M909.07,76.71h-394a36.34,36.34,0,0,0-36.34,36.34v195a36.34,36.34,0,0,0,36.34,36.34H747.29l63.27,117v-117h98.51a36.34,36.34,0,0,0,36.34-36.34v-195A36.34,36.34,0,0,0,909.07,76.71Z"/><path class="cls-6" d="M1210.53,474.18c-13.49,23.48-30.46,32.55-30.46,32.55h-70.62S1220.83,456.26,1210.53,474.18Z"/><path class="cls-7" d="M1156.3,655.9a6.53,6.53,0,0,0-1.16,7,.06.06,0,0,0,0,0c1.69,4.65,7.25,9.85,13.72,15,.82.67,1.56,1.27,2.2,1.83l.49.45.38.34c6,5.56,3.76,6.83,14.59,18.1,12.34,12.85,20.84,13.08,23.26,11.91,2-1-2.11-7.81-6.71-15.47l-.68-1.12c-.61-1-1.22-2-1.83-3.07-5.39-9.22-4-13.54-2.73-27.26,1-11.14,17.34-62.26,17.34-62.26l-23.66-4.08s-7.12,40.71-15,47c-4.19,3.34-8.89,3.38-12.93,5.86l-.84.53A31.36,31.36,0,0,0,1156.3,655.9Z"/><path class="cls-6" d="M1156.3,655.9a6.53,6.53,0,0,0-1.16,7,.06.06,0,0,0,0,0c2.07,4.65,7.49,9.82,13.74,15,.81.68,1.53,1.3,2.18,1.88l.49.45.38.34c6,5.56,3.76,6.83,14.59,18.1,12.34,12.85,20.84,13.08,23.26,11.91,2-1-2.11-7.81-6.71-15.47a52.5,52.5,0,0,1-22-16.22c-7.44-9.48-12.39-21.67-17.46-28.73l-.84.53A31.36,31.36,0,0,0,1156.3,655.9Z"/><path class="cls-7" d="M1347.08,641.12c1.46,7.31,11.87,6.09,23.5,3.25s8.87.53,25.42-1.3,21.57-8,22.07-10.46c.46-2.19-7.72-3-16.5-4-1.1-.12-2.21-.26-3.32-.4-9.9-1.24-17.15-7.63-26.15-12.88-8.52-5-21.24-25.23-21.24-25.23l-22.7,1.8s11.91,18.09,16.52,26c2.71,4.63,2.56,10.74,2.23,15.47A28.83,28.83,0,0,0,1347.08,641.12Z"/><path class="cls-6" d="M1370.58,644.37c11.63-2.85,8.87.53,25.42-1.3s21.57-8,22.07-10.46c.46-2.19-7.72-3-16.5-4l-.08.17a46.66,46.66,0,0,1-23.7,7.37c-11.23.27-23.13-2.95-30.88-2.82a28.83,28.83,0,0,0,.17,7.76C1348.54,648.43,1359,647.21,1370.58,644.37Z"/><path class="cls-6" d="M1260.08,496l-21.22,57.1-27.7,74.56a44.84,44.84,0,0,1-14.72-1.34c-6.63-1.92-14.24-6.93-14.24-6.93s7.7-80.06,22-126c3.68-11.8,7.8-21.34,12.35-26.71C1238.84,440.35,1260.08,496,1260.08,496Z"/><path class="cls-8" d="M1238.51,405.28c-13.9-4.48-53.56,1.27-93.39,9.07l-8.34-13.75-86-6.72s-28.39,63-12.84,103.07c2.28,5.9,7.93,8.39,15.67,8.51h0s51.34,1.25,68,1.25c42.79,0,90.55-29.41,96.73-30.64,10.11-2,14.16,18.2,24.27,39.44s95.07,94.06,95.07,94.06,13.06.13,18.45-1.89c5.81-2.18,7.93-5,7.93-5S1269.86,415.39,1238.51,405.28Z"/><path class="cls-6" d="M1127.64,148a30.57,30.57,0,0,0-16.54-4.28,49.16,49.16,0,0,1-8.22-.54c-32.6-4.38-52.23,43-53.38,57.35-2.13,26.46-16.12,30.5-35.83,47.07-39.5,33.22-27.92,71.83-6.31,86.18,13,8.6,35.8,0,35.8,0,.32.23,62.48-34.74,93.11-51.61C1182.2,275.58,1146.09,158.93,1127.64,148Z"/><path class="cls-7" d="M1110.59,267.75c.14.09-15.07,5.28-25.24.78-9.57-4.23-16.81-20-16.67-20,4.35-.2,9.13-4,12.81-29l1.85.66,31.16,11.21s-2.26,10-3.72,19.52C1109.55,259,1108.89,266.62,1110.59,267.75Z"/><path class="cls-9" d="M1114.5,231.45s-2.26,10-3.72,19.52c-17.89-3.22-24.92-21.05-27.44-30.73Z"/><path class="cls-7" d="M1119.14,241.38s-42.63-5.72-38.66-32.22,1.15-45.08,28.53-42.54,31.15,13.43,32,22.6S1130.33,242.18,1119.14,241.38Z"/><path class="cls-6" d="M1139.43,174.69s-27.29,23.52-45.85,25.42-25.59-4.06-25.59-4.06a72.51,72.51,0,0,0,17.52-23.75,13,13,0,0,1,10.76-7.69C1109.53,163.46,1134.66,162.94,1139.43,174.69Z"/><path class="cls-6" d="M1122.37,172.59s9.13,8.83,12,15.37c2.77,6.32,3.61,21.43,1.4,27.44,0,0,14.22-27.66,6.17-41.1C1133.41,160.05,1122.37,172.59,1122.37,172.59Z"/><path class="cls-10" d="M1146.49,330.55c-1.29,86.3-.35,68.27-9.79,76.46-2.27,2-8.67,3.14-17.09,3.7-26.46,1.76-73-2.6-74.74-7.49-6.11-16.93-1.8-22.18-6.89-48.09-.53-2.75-1.19-5.74-2-9-4.25-17.8-8.38-23.85,6.69-52.43,13.66-25.9,27.85-46.91,29.12-46.16,36.05,21.4,39,3.42,39,3.42S1147.13,288.46,1146.49,330.55Z"/><path class="cls-8" d="M1238.86,553.07l-27.7,74.56a44.84,44.84,0,0,1-14.72-1.34c-6.63-1.92-14.24-6.93-14.24-6.93s7.7-80.06,22-126Z"/><path class="cls-10" d="M1110.78,251s37.09,6.29,41.44,22.26,30,109.83,30,109.83-18.85,3.39-27.56-5.32-30.3-80.81-30.3-80.81Z"/><path class="cls-11" d="M1119.61,410.71c-26.46,1.76-73-2.6-74.74-7.49-6.11-16.93-1.8-22.18-6.89-48.09l12.76-35.94s-2.11,40,9.7,50.55,48.32,20.32,54.06,29.12A32.26,32.26,0,0,1,1119.61,410.71Z"/><path class="cls-7" d="M1089.3,393.88s26.1-5.82,30.31-3.5,14.51,10.75,15.8,13.69-9.38-2.23-12.85-3.16c-2.24-.6-8.16,1.45-11.09,2.43-12.32,4.11-19.87,2-19.87,2Z"/><path class="cls-10" d="M1071.81,247.55s-35,2.16-47.19,19.08c-17.08,23.82-51,125.36-31.54,138.9,21.87,15.25,99.53,4,99.53,4s2.59-12.08-1-17.92-62-15.29-64.73-18,33.72-52.6,33.72-60.69S1071.81,247.55,1071.81,247.55Z"/><path class="cls-7" d="M1120.88,397.65s5.47,7.05,7.26,7.89a5.32,5.32,0,0,0,2.95.64l-3.68-6.64Z"/><path class="cls-7" d="M1119.61,390.38l15.91,7.72a2.84,2.84,0,0,1-2.64,1c-2-.09-6.89-1.89-6.89-1.89Z"/><polygon class="cls-4" points="1128.14 416.35 1253.94 416.35 1291.79 322.25 1166.18 322.25 1128.14 416.35"/><polygon class="cls-12" points="1255.42 412.69 1089.3 412.69 1089.3 416.35 1253.94 416.35 1255.42 412.69"/><path class="cls-13" d="M1222.19,369.3c1-3.31-1-6-4.27-6a8.58,8.58,0,0,0-7.71,6c-1,3.31,1,6,4.27,6A8.58,8.58,0,0,0,1222.19,369.3Z"/><g id="man"><path class="cls-7" d="M777.83,780.83c-4.27,11.49-11.68,24.82-19.45,28.14-8.81,3.76-12.49,9.07-12.49,9.07l-7.11-4.13-8.5-4.94s.2-1,.62-2.49,1-3.66,1.91-6a8.24,8.24,0,0,0,1-7.56c-1.6-4.21-1.28-10.71,1.44-14.67s5.36-13.72,7-13.43c4,.68-2,14.1-.25,16.58a2.94,2.94,0,0,0,3.82,1.31l.06,0c11.15-4.9,24.68-31.33,30.66-27.76C778.79,756.23,779.65,775.93,777.83,780.83Z"/><path class="cls-8" d="M739.26,796.83l14,9.81a2.18,2.18,0,0,0,3-.53l35.78-50.91a2.2,2.2,0,0,0-.53-3.06l-14-9.81a2.18,2.18,0,0,0-3,.53l-35.78,50.91A2.2,2.2,0,0,0,739.26,796.83Z"/><path class="cls-6" d="M752.05,805.81l8.19,5.76a1.67,1.67,0,0,0,2.32-.41l36.38-51.77a1.67,1.67,0,0,0-.4-2.32l-8.19-5.76a1.68,1.68,0,0,0-2.32.41l-36.39,51.77A1.67,1.67,0,0,0,752.05,805.81Z"/><path class="cls-6" d="M538.88,723.77s71.07,124,96.86,146.77l94.54-70.48S744,804.26,750,818c0,0-57.41,117-113.94,121.92s-135.86-140.2-135.86-140.2Z"/><path class="cls-6" d="M378.05,1566.91H337c-5.17-2.81-9.77-9.23-11.23-18.82-2-13.23-16.83-20.44-20-31.26s13.23-26,13.23-26l2.75-3.54,2.86-3.68L351.8,1490s.68,6.49,1.09,14.76c.29,6,.45,12.86.11,18.91-.8,14.42,4,30,16.86,32.77C379.34,1558.49,378.92,1564.12,378.05,1566.91Z"/><path class="cls-6" d="M616.37,1566.91H522.46c-4.52-5.51-2.86-25.85-2.17-32.49.14-1.34.24-2.12.24-2.12s32.07-25.65,36.47-6c.13.62.3,1.22.48,1.81,5.54,18.37,30.44,26.72,44.81,29.05C611.64,1558.66,615.09,1563.52,616.37,1566.91Z"/><path class="cls-4" d="M598.48,1042.7s-4.87,60.76-10.6,133.79c-7.78,99.2-17.13,221.06-18.06,244.15-1.6,40.08-8,104.2-8,104.2s-15.22,15.24-45.69,8.82c0,0-27.14-91.54-34.9-188.39-.12-1.58-.24-3.18-.36-4.78-7.21-98.59-18.43-306.2-18.43-306.2Z"/><path class="cls-12" d="M598.48,1042.7s-4.87,60.76-10.6,133.79L481.21,1345.27c-.12-1.58-.24-3.18-.36-4.78-7.21-98.59-18.43-306.2-18.43-306.2Z"/><path class="cls-4" d="M576.24,1049.92s-87.77,220-145.49,323.43S355,1505.61,355,1505.61s-33.07-13.23-36.07-22.25c0,0,22.06-199.62,60.71-248.28,21.84-27.5,47.5-110,48.7-138.87s7.81-86,7.81-86Z"/><path class="cls-7" d="M554.39,729.16c-34.3,10.82-93.65-18.39-93.65-18.39s31.63-23.73,30-73.08l26.52,21.37,18,14.52a216.75,216.75,0,0,1-2,23.55c-.52,4-1.16,8.35-2,13.15A82.27,82.27,0,0,1,554.39,729.16Z"/><path class="cls-9" d="M535.25,673.58a216.75,216.75,0,0,1-2,23.55c-20-3.42-42.6-35.68-42.6-35.68,10.16-2.94,19.06-3.46,26.63-2.39Z"/><path class="cls-7" d="M545.73,672.77s-56.65,9.41-62-26-16.21-58,19.74-65.49,45,4.94,49.66,16.31S560.33,669.41,545.73,672.77Z"/><path class="cls-8" d="M602.26,1047.76a5.53,5.53,0,0,1-3.6,1.38c-12.88-.18-50.44,7-82.22,3.71-26.8-2.57-50.51-10.51-76-21.92-3.39-1.52-11.17-5.67-11-9.45.11-4.14.52-10.14,1-17.7,1.8-26.29,4.94-71.5,1.88-123.66-.55-9.71-.84-19.34-.88-28.83-.26-70.69,13.76-132.87,41.92-153.91,2.41-1.72,17.18,5.5,30.75,12.19,12.54,6.19,25.08,6.87,36.93,4.47L553,724.51c14.43,13.4,30.23,31.61,37.1,59.26,5.85,23.53,9.28,66,11.17,109.92.86,19.93,1.55,40,1.72,59.09v.68c.17,1.89.17,4,.17,5.85C603.81,1008.26,603.12,1047.07,602.26,1047.76Z"/><path class="cls-6" d="M430.52,1003.78c1.8-26.29,4.94-71.5,1.88-123.66-.55-9.71-.84-19.34-.88-28.83,11.74-28.46,21.33-49.1,21.33-49.1h29.57S504.1,950.29,430.52,1003.78Z"/><path class="cls-6" d="M279,1171.63l126.14,18a30.24,30.24,0,0,0,34.1-25.59l7.79-54.67a30.24,30.24,0,0,0-25.6-34.1l-126.13-18a30.24,30.24,0,0,0-34.1,25.59l-7.79,54.66A30.25,30.25,0,0,0,279,1171.63Z"/><path class="cls-8" d="M428.58,1091.54h0a30.4,30.4,0,0,0-20.9-18.25h0c-.95-.23-1.92-.42-2.91-.56l-25.12-3.57,1.68-11.8a10,10,0,0,0-8.48-11.29l-6.55-.94-26.37-3.76-4.75-.67a10,10,0,0,0-11.3,8.47l-1.67,11.8-43.36-6.18a30.36,30.36,0,0,0-34.23,25.69l-7.87,55.29A30.35,30.35,0,0,0,262.41,1170l125.9,18a30.24,30.24,0,0,0,6.57.2h0a29.76,29.76,0,0,0,9.83-2.48,30.29,30.29,0,0,0,17.81-23.42l7.88-55.29A30,30,0,0,0,428.58,1091.54ZM330.05,1050a3.74,3.74,0,0,1,3.1-3.15,3.8,3.8,0,0,1,1.12,0l5.6.8,20.76,3,11.31,1.61a3.73,3.73,0,0,1,3.16,4.21l-1.67,11.8-45.06-6.42Z"/><path class="cls-7" d="M374.94,1008.87s-6.63,8.82-6.89,12.35c-1.78,23.89,9.14,27.2-19.13,40.47,0,0-12.07,4.6-12.27-4.76s8.37-9.53,6.8-22.64c-1.81-15.14-1.62-15.27,8.31-23.18l6.57-10.87Z"/><path class="cls-8" d="M358.09,1015.63a96.57,96.57,0,0,0,22.2,1.23S411.91,919.19,416,910.27s93.91-114.52,93.91-114.52l-37.43-93.67s-97.17,162.32-107,185.13c-16.31,37.69-22,122.19-22,122.19A40.69,40.69,0,0,0,358.09,1015.63Z"/><path class="cls-8" d="M483.72,643.4s5.81-1,4.87-9-.92-18.47,5.59-16.52,6.83,7.16,9.51,4.12,2.72-15.87,22.09-16.76S553,611.11,562,607.15s9.48-17.6,9.48-17.6-2.56,4.87-6.43,6.42c0,0,15-20.56-2.37-34.66s-35.15-4.86-45.22-4.25c-22.18,1.34-36.52,2.67-43.76,17.25S469.48,629.37,483.72,643.4Z"/><path class="cls-7" d="M364.49,1019.37s6.38,6.65,6.78,9.42c1.29,8.88,4.26,12.72,2.77,13.68-3.09,2-7.18-4.57-9.13-10.46S364.49,1019.37,364.49,1019.37Z"/></g><path class="cls-7" d="M2027.52,835.13c0-.6,8.89-19,6.06-20.39s-7.89-1.19-8.48,2S2027.52,835.13,2027.52,835.13Z"/><path class="cls-6" d="M2160.13,606.83s52.1-62.6,79.67-22.55c0,0,20.58,8.54,28,43.56,7.59,35.73-16.17,62.89-28.45,56.17-7.88-4.3-13.85,9.49-13.85,9.49Z"/><path class="cls-7" d="M2095.53,939.93c-41.42-15.26-81.3-86.13-81.3-86.13l13.06-9.15c10.88,15.92,59.82,46.47,59.82,46.47,1.11-13.41,2.73-25.58,4.74-36.6,13.58-74.89,44.66-97.08,53-101.79a19.15,19.15,0,0,1,2.1-1.07s0,.56-.09,1.6c-.12,2.25-.38,6.8-.82,13C2142.82,812.65,2130.13,952.68,2095.53,939.93Z"/><path class="cls-6" d="M2234.11,577.93s7-28,48.15-19.26c0,0-19.69-2.48-25.09,5.11,0,0,15.61-7.15,25.39-1.17s11.38,26.12,9.92,32.25-12.26,24.37-19.41,24.37-15.61-6.28-15.61-6.28Z"/><path class="cls-7" d="M2295.69,1016.4c-20.46-45.88-30.25-58.86-30.59-73.29-.27-11.42,5.36-23.74,16.29-53.94a113.32,113.32,0,0,0,5.45-21.84c8.64-58.23-25-121.17-46-125.46-5.82-1.54-15.69-22.57-15.57-56.46l-2.62.52-44.07,8.72s1,13.87,1,26.94c0,10.88-.62,21.2-3.09,22.5-3.17.29-5,.48-5,.48s-36.75,51-39.84,98.49,29.43,68.08-.24,162.92C2101.14,1102.84,2307,1041.76,2295.69,1016.4Z"/><path class="cls-14" d="M2178.62,694.65s1,13.87,1,26.94c24.66-.7,37.7-23.19,43-35.66Z"/><path class="cls-6" d="M2227.24,681.13s12.92-20.42,16-37.88c2.21-12.47-4.14-58.67-50.57-52a63.07,63.07,0,0,0-26.16,9.89c-10.08,6.81-24.63,21.51-8.36,61.83l4.22,13.62Z"/><path class="cls-7" d="M2170.39,707s58.34,1,58.38-35.38,7.6-60.69-29.65-62.84-44.5,11.7-47.47,23.83S2155.21,705.84,2170.39,707Z"/><path class="cls-6" d="M2172.55,607.91s16,42.63,40.49,48.94,35.15-.27,35.15-.27-18.81-14.93-22.71-41C2225.48,615.57,2184.6,587.61,2172.55,607.91Z"/><path class="cls-6" d="M2176.5,611.37s-11.93,9.52-14.83,18.77-4.22,28.31-9.77,27.66c0,0-12-29,1.49-45.38C2167.73,595,2176.5,611.37,2176.5,611.37Z"/><path class="cls-15" d="M2244,1456.69a576.24,576.24,0,0,1-36.78,103.16l-19.24-1.33s9.43-44.89,8.89-105.54c-.38-42.39-5.62-92.5-22.38-140.35-57.56-164.42-48.26-284.08-48.26-284.08l108.26,12.67,5,.59c.45,49.72,1.74,117.22,2.86,170,1,47.47,1.87,83,1.87,83C2265.1,1339.68,2257.54,1403,2244,1456.69Z"/><path class="cls-7" d="M2371.57,1065.14l-17.52,5.25s-57.78-95.87-63-120.81c-1.72-8.12-5.92-24.37-10.82-42.58-10.15-37.71-23.24-83.85-23.24-83.85l-4.31-18.68-14.71-63.69s28.16,2.87,44.64,9.76c5.45,2.28,9.61,5,11.06,8.18,12.11,26.61,24.19,93.77,32.68,141.67,4.73,26.7,8.34,47.42,10.23,51.82C2341.8,964.46,2357.85,1031.87,2371.57,1065.14Z"/><path class="cls-16" d="M2306.14,1447.37c-6.23,66.43-33.64,109.39-33.64,109.39l-9.19,6.69s-8.7-46.81-14.85-102.49c-5.87-52.93-13.91-108.94-23-126-36.11-67.8-47-323.73-47-323.73l109.77-5.44c11,18.55,15.85,49,17,83.6,2.89,87.35-17.64,201.24-20.71,217.72a.08.08,0,0,1,0,0,5.76,5.76,0,0,0,.72,3.68C2307.08,1354,2310.24,1403.49,2306.14,1447.37Z"/><path class="cls-6" d="M2174.29,612.81s11.38,44.65,42.31,59c0,0-30.93-27.43-33.56-56.91S2174.29,612.81,2174.29,612.81Z"/><path class="cls-4" d="M2309.44,1049.53a26.06,26.06,0,0,1-.68,8.77c-2.33,7.35-10.35,10.7-29.74,8.69-11.85-1.23-17.14-21.09-19.49-38q-10.68,36.36-30,40.7c-18.8,4.18-113.63,15.71-119.83-29.37-6.83-49.57,13.61-137.36,14.73-184.69a234.1,234.1,0,0,1-3.43-43.87c.79-33.72,10.68-52.62,18.29-60.22,2.16-1.66,4.31-2.69,13-4.18,4.42-.75,10.54-1.62,19.23-2.76a32.55,32.55,0,0,1,3.46-.27c-1.61,2.87-23.08,35.39-21.41,43.75,1.75,8.75,77.92.87,83.18-3.94s13.56-41.69,13.56-41.69,27,3,40.17,12.54l-.14.17a11.22,11.22,0,0,1,3.46,3.65c14.08,26.8,28.14,94.44,38,142.68-24,13.21-44.89,9.28-51.39,7.53C2288.92,964.56,2308.18,1024.21,2309.44,1049.53Z"/><path class="cls-7" d="M2027.29,844.65c0-1.8,1.51-27.86-3.13-33.33s-14.11-13.26-17.09-13-14.63,15.72-11.13,27.58,18.29,27.92,18.29,27.92Z"/><rect class="cls-17" x="2011.06" y="760.88" width="31.58" height="57.15" rx="1.69" transform="translate(-141.32 615.14) rotate(-16.68)"/><path class="cls-18" d="M2041.54,814.88l-24.49,7.34a3,3,0,0,1-3.74-2l-14.69-49a3,3,0,0,1,2-3.74l24.5-7.35a3,3,0,0,1,3.74,2l14.68,49A3,3,0,0,1,2041.54,814.88Z"/><path class="cls-7" d="M2306.14,1447.37c-6.23,66.43-33.64,109.39-33.64,109.39l-9.36,8.52s-8.53-48.64-14.68-104.32C2254.94,1461.43,2283.54,1462.47,2306.14,1447.37Z"/><path class="cls-19" d="M2244,1456.69a576.24,576.24,0,0,1-36.78,103.16l-19.24-1.33s9.43-44.89,8.89-105.54C2203.43,1456.27,2216.9,1459.61,2244,1456.69Z"/><path class="cls-6" d="M2218.33,1576h-12.28c-4.12-.65-7.16-1.84-11.38-2.39-6.4-.84-9.36,1.78-9.94,2.39l-.12.12h-52.17c-1.32-1.88-.06-6.22,1.18-9.41a7.43,7.43,0,0,1,4.88-4.47c5.54-1.6,16.44-3,26.43-12.07,5.62-5.08,27.14-18.68,27.14-18.68l.12,0c.47,0,2.72.7,12.51,9,5.06,4.27,13.68-6,13.68-6a12.32,12.32,0,0,1,2.83,3.83,13,13,0,0,1,1.12,8c-.78,4.7,1.73,13.43,3.74,19.34,1.22,3.59,2.24,6.12,2.24,6.12S2228.9,1574.66,2218.33,1576Z"/><path class="cls-20" d="M2221.21,1538.23c-2.93,2.07-9.12,6.14-13.23,6.68-5.54.72-15.91-13.43-15.91-13.43l.12,0c.47,0,2.72.7,12.51,9,5.06,4.27,13.68-6,13.68-6A12.32,12.32,0,0,1,2221.21,1538.23Z"/><path class="cls-20" d="M2218.33,1576h-12.28c-4.12-.65-7.16-1.84-11.38-2.39-6.4-.84-9.36,1.78-9.94,2.39l-.12.12h-52.17c-1.32-1.88-.06-6.22,1.18-9.41,1.58-1.41,2,6.12,2.9,7.32s42.57.43,45-1.32,9.63-4.81,19.7-2.4c8.76,2.09,21.67-3.28,24.87-4.71,1.22,3.59,2.24,6.12,2.24,6.12S2228.9,1574.66,2218.33,1576Z"/><path class="cls-6" d="M2283.88,1576h-12.29c-4.11-.65-7.15-1.84-11.37-2.39-6.41-.84-9.36,1.78-9.94,2.39a1.06,1.06,0,0,0-.12.12H2198c-1.31-1.88-.05-6.22,1.19-9.41a7.43,7.43,0,0,1,4.88-4.47c5.53-1.6,16.44-3,26.43-12.07,5.62-5.08,27.14-18.68,27.14-18.68l.11,0c.48,0,2.73.7,12.52,9,5.06,4.27,13.68-6,13.68-6a12.32,12.32,0,0,1,2.83,3.83,13,13,0,0,1,1.12,8c-.78,4.7,1.73,13.43,3.74,19.34,1.21,3.59,2.24,6.12,2.24,6.12S2294.44,1574.66,2283.88,1576Z"/><path class="cls-20" d="M2286.76,1538.23c-2.94,2.07-9.13,6.14-13.23,6.68-5.54.72-15.91-13.43-15.91-13.43l.11,0c.48,0,2.73.7,12.52,9,5.06,4.27,13.68-6,13.68-6A12.32,12.32,0,0,1,2286.76,1538.23Z"/><path class="cls-20" d="M2283.88,1576h-12.29c-4.11-.65-7.15-1.84-11.37-2.39-6.41-.84-9.36,1.78-9.94,2.39a1.06,1.06,0,0,0-.12.12H2198c-1.31-1.88-.05-6.22,1.19-9.41,1.58-1.41,2,6.12,2.9,7.32s42.57.43,45-1.32,9.63-4.81,19.69-2.4c8.77,2.09,21.68-3.28,24.88-4.71,1.21,3.59,2.24,6.12,2.24,6.12S2294.44,1574.66,2283.88,1576Z"/><path class="cls-21" d="M2309.44,1049.53c-13-4.35-29.73-15.92-49.81-41.86-53.13-68.68-4.51-149.39,2-150.89S2280.43,909,2280.43,909C2288.92,964.56,2308.18,1024.21,2309.44,1049.53Z"/><path class="cls-4" d="M2142.58,750s-36.38,18.31-48.51,92.21c0,0,11.92,16.33,28.71,21.15a33.08,33.08,0,0,0,7.47,1.28C2150.86,865.7,2142.58,750,2142.58,750Z"/><path class="cls-7" d="M2004.28,800.3s11.25-17.31,14-16.34c3.92,1.37-10.2,23.33-10.2,23.33s10.46-16.41,12.1-15.18c3.72,2.81-2.21,13.12-8.09,21,0,0,10.53-9.64,10.87-7.9,1.2,6.08-11.55,20.8-11.55,20.8l-7.13-16.27Z"/><path class="cls-7" d="M1995.85,816.36c.54-2.11,3.28-43.44,4.46-39.52s4,25.59,4,25.59Z"/><path class="cls-13" d="M2181.78,685.45s-1,4.28-11.66,3.62c0,0-8.94-.55-8.67-5.26C2161.45,683.81,2170.12,680.46,2181.78,685.45Z"/><path class="cls-7" d="M2371.57,1065.14s21.13,14,24.36,20,10.76,27.72,10.76,27.72-5.38.81-10.76-8.61-23.15-8.62-29.07-13.73-12.81-20.1-12.81-20.1Z"/><path class="cls-7" d="M2356.35,1075s3.51,16.54,7.82,21.38,10.23,12.92,12.65,10.77-2.69-20.19-2.69-20.19Z"/><path class="cls-7" d="M2393,1087c.54.81,19.11,20.55,19.11,20.55s-6.73,3-8.62,0S2393,1087,2393,1087Z"/><path class="cls-13" d="M1137.08,918.42h-30.2V840.87h-78v77.55H998.52V743.91h30.33v72.63h78V743.91h30.2Z"/><path class="cls-13" d="M1299.47,840.51h-71.68v53.7h83.78v24.21h-114.1V743.91h113.26v24.45h-82.94v48.18h71.68Z"/><path class="cls-13" d="M1391.14,894.21h79.22v24.21H1360.81V743.91h30.33Z"/><path class="cls-13" d="M1548.49,894.21h79.22v24.21H1518.16V743.91h30.33Z"/><path class="cls-13" d="M1807.12,835.72q0,19.89-5.21,35.66a77.61,77.61,0,0,1-14.69,26.73A63.74,63.74,0,0,1,1764.45,915a76.69,76.69,0,0,1-58.85,0,65.45,65.45,0,0,1-22.95-16.84,77.46,77.46,0,0,1-15-26.73q-5.33-15.76-5.33-35.66v-8.87q0-19.89,5.33-35.72a79.26,79.26,0,0,1,14.87-26.85,64,64,0,0,1,22.83-16.9,76.84,76.84,0,0,1,58.91,0,63.85,63.85,0,0,1,22.89,16.9,77.72,77.72,0,0,1,14.75,26.85q5.21,15.82,5.21,35.72Zm-30.32-9.11a106.36,106.36,0,0,0-2.82-25.83,55.12,55.12,0,0,0-8.21-18.76,35.59,35.59,0,0,0-13.24-11.44,39.5,39.5,0,0,0-17.8-3.9,38.52,38.52,0,0,0-17.5,3.9A36.16,36.16,0,0,0,1704,782a56,56,0,0,0-8.39,18.76,102.24,102.24,0,0,0-2.93,25.83v9.11a103,103,0,0,0,2.93,25.89,56.16,56.16,0,0,0,8.45,18.88,36.31,36.31,0,0,0,13.37,11.5,38.88,38.88,0,0,0,17.55,3.9q20.14,0,31-15.34t10.85-44.83Z"/><rect class="cls-13" x="959.35" y="1267.06" width="376.38" height="166.95" rx="18.9"/><polygon class="cls-13" points="1327.83 1278.88 1408 1225.64 1327.83 1393.19 1327.83 1278.88"/><path class="cls-22" d="M1072.74,1382.35h-12v-30.72h-30.91v30.72h-12v-69.14h12V1342h30.91v-28.78h12Z"/><path class="cls-22" d="M1126.24,1382.35a9.2,9.2,0,0,1-.78-2.14c-.21-.82-.39-1.71-.55-2.66a20.36,20.36,0,0,1-2.54,2.23,16.78,16.78,0,0,1-3.09,1.83,19.09,19.09,0,0,1-3.65,1.24,18.85,18.85,0,0,1-4.2.45,20.62,20.62,0,0,1-7.08-1.17,16.53,16.53,0,0,1-5.53-3.23,14.77,14.77,0,0,1-3.61-4.86,14.24,14.24,0,0,1-1.3-6.08,16.4,16.4,0,0,1,1.56-7.31,14.21,14.21,0,0,1,4.56-5.32,21.91,21.91,0,0,1,7.34-3.25,39.55,39.55,0,0,1,9.9-1.12h7.26v-3.37a9,9,0,0,0-2.23-6.39q-2.23-2.39-6.79-2.39a11.89,11.89,0,0,0-3.7.54,9.34,9.34,0,0,0-2.83,1.47,6.58,6.58,0,0,0-1.8,2.21,6.08,6.08,0,0,0-.64,2.76H1095a12.48,12.48,0,0,1,1.49-5.87,16.24,16.24,0,0,1,4.25-5,21.89,21.89,0,0,1,6.67-3.54,27.4,27.4,0,0,1,8.76-1.33,27,27,0,0,1,8,1.12,18,18,0,0,1,6.32,3.32,15,15,0,0,1,4.13,5.51,18.82,18.82,0,0,1,1.47,7.72v22.79q0,6.93,2,11.06v.81Zm-12.68-8.31a13,13,0,0,0,6.86-1.9,11.7,11.7,0,0,0,2.45-2,11,11,0,0,0,1.66-2.26v-9.68h-6.22c-4.27,0-7.49.74-9.64,2.23a7.23,7.23,0,0,0-3.23,6.31,7.83,7.83,0,0,0,.53,2.9,6.15,6.15,0,0,0,1.56,2.3,7.41,7.41,0,0,0,2.54,1.52A10,10,0,0,0,1113.56,1374Z"/><path class="cls-22" d="M1170.15,1382.35h-11.54v-72.93h11.54Z"/><path class="cls-22" d="M1204.71,1382.35h-11.54v-72.93h11.54Z"/><path class="cls-22" d="M1224.83,1356.19a31.82,31.82,0,0,1,1.64-10.38,24.72,24.72,0,0,1,4.7-8.29,21.58,21.58,0,0,1,7.48-5.5,24.06,24.06,0,0,1,10-2,24.49,24.49,0,0,1,10.11,2,21.41,21.41,0,0,1,7.53,5.5,24.51,24.51,0,0,1,4.68,8.29,32.36,32.36,0,0,1,1.61,10.38v1a32.57,32.57,0,0,1-1.61,10.4,24.13,24.13,0,0,1-4.68,8.29,21.5,21.5,0,0,1-7.5,5.46,26.72,26.72,0,0,1-20.14,0,21.5,21.5,0,0,1-7.5-5.46,24.33,24.33,0,0,1-4.7-8.29,32,32,0,0,1-1.64-10.4Zm11.54,1a29.29,29.29,0,0,0,.71,6.55,16.29,16.29,0,0,0,2.24,5.39,11.72,11.72,0,0,0,15,3.64,11,11,0,0,0,3.84-3.64,16.93,16.93,0,0,0,2.23-5.39,28.15,28.15,0,0,0,.74-6.55v-1a27.75,27.75,0,0,0-.74-6.49,16.75,16.75,0,0,0-2.25-5.36,11.63,11.63,0,0,0-3.87-3.68,10.84,10.84,0,0,0-5.58-1.38,10.56,10.56,0,0,0-5.53,1.38,11.67,11.67,0,0,0-3.82,3.68,16.3,16.3,0,0,0-2.24,5.36,28.88,28.88,0,0,0-.71,6.49Z"/><path class="cls-8" d="M1957.19,323v-64.6h22.15a38.58,38.58,0,0,1,9.4,1,19.76,19.76,0,0,1,7.06,3.17,13.89,13.89,0,0,1,4.41,5.44,18.48,18.48,0,0,1,1.53,7.83,13.94,13.94,0,0,1-2.39,8,15.5,15.5,0,0,1-7,5.5,15.25,15.25,0,0,1,4.86,2.2,13.57,13.57,0,0,1,3.41,3.39,14.38,14.38,0,0,1,2,4.3,17.66,17.66,0,0,1,.67,4.89,20.41,20.41,0,0,1-1.53,8.18,15.39,15.39,0,0,1-4.44,5.9,19.52,19.52,0,0,1-7.06,3.58,34.12,34.12,0,0,1-9.38,1.19Zm11.23-37.4h11q5.24,0,8.19-2.38a8.12,8.12,0,0,0,3-6.72q0-4.78-2.73-6.92t-8.49-2.13h-10.92Zm0,8.25V314h12.47a15.35,15.35,0,0,0,4.86-.71,9.76,9.76,0,0,0,3.53-2,8.25,8.25,0,0,0,2.12-3.13,12.22,12.22,0,0,0-1.81-11.58q-2.53-2.74-8.21-2.75Z"/><path class="cls-8" d="M2075.17,292.38a41.84,41.84,0,0,1-1.93,13.2,28.66,28.66,0,0,1-5.43,9.89,23.62,23.62,0,0,1-8.43,6.24,28.44,28.44,0,0,1-21.79,0,24.23,24.23,0,0,1-8.5-6.24,28.52,28.52,0,0,1-5.54-9.89,41,41,0,0,1-2-13.2v-3.29a41.13,41.13,0,0,1,2-13.22,29.19,29.19,0,0,1,5.5-9.94,23.71,23.71,0,0,1,8.45-6.26,28.49,28.49,0,0,1,21.81,0,23.73,23.73,0,0,1,8.48,6.26,28.61,28.61,0,0,1,5.45,9.94,42,42,0,0,1,1.93,13.22ZM2064,289a39.22,39.22,0,0,0-1-9.56,20.12,20.12,0,0,0-3-6.94,13.07,13.07,0,0,0-4.9-4.24,14.64,14.64,0,0,0-6.59-1.44,14.35,14.35,0,0,0-6.48,1.44,13.38,13.38,0,0,0-4.9,4.24,20.76,20.76,0,0,0-3.11,6.94,38.18,38.18,0,0,0-1.08,9.56v3.38a38.35,38.35,0,0,0,1.08,9.58,20.85,20.85,0,0,0,3.13,7,13.41,13.41,0,0,0,5,4.26,14.43,14.43,0,0,0,6.5,1.44q7.45,0,11.47-5.68t4-16.59Z"/><path class="cls-8" d="M2146.69,323h-11.22l-28.8-45.83V323h-11.23v-64.6h11.23l28.89,46v-46h11.13Z"/><path class="cls-8" d="M2195.5,258.39h11.18v45.3a22.08,22.08,0,0,1-1.58,8.57,17.63,17.63,0,0,1-4.39,6.34,19.05,19.05,0,0,1-6.68,3.93,25.35,25.35,0,0,1-8.43,1.35,29.71,29.71,0,0,1-8.5-1.15,18,18,0,0,1-6.67-3.55,16.44,16.44,0,0,1-4.38-6,21.41,21.41,0,0,1-1.57-8.56h11.18a14,14,0,0,0,.73,4.77,8,8,0,0,0,2.05,3.19,8,8,0,0,0,3.12,1.8,13.19,13.19,0,0,0,4,.58,10.82,10.82,0,0,0,4-.73,8.5,8.5,0,0,0,3.12-2.16,9.66,9.66,0,0,0,2-3.5,14.52,14.52,0,0,0,.74-4.84Z"/><path class="cls-8" d="M2280.15,292.38a41.84,41.84,0,0,1-1.93,13.2,28.66,28.66,0,0,1-5.43,9.89,23.62,23.62,0,0,1-8.43,6.24,28.44,28.44,0,0,1-21.79,0,24.23,24.23,0,0,1-8.5-6.24,28.7,28.7,0,0,1-5.55-9.89,41.24,41.24,0,0,1-2-13.2v-3.29a41.41,41.41,0,0,1,2-13.22,29.21,29.21,0,0,1,5.51-9.94,23.71,23.71,0,0,1,8.45-6.26,26.61,26.61,0,0,1,10.87-2.17,26.91,26.91,0,0,1,10.94,2.17,23.61,23.61,0,0,1,8.47,6.26,28.47,28.47,0,0,1,5.46,9.94,42,42,0,0,1,1.93,13.22ZM2268.93,289a39.22,39.22,0,0,0-1-9.56,20.31,20.31,0,0,0-3-6.94,13.07,13.07,0,0,0-4.9-4.24,14.64,14.64,0,0,0-6.59-1.44,14.35,14.35,0,0,0-6.48,1.44,13.3,13.3,0,0,0-4.9,4.24,20.76,20.76,0,0,0-3.11,6.94,38.18,38.18,0,0,0-1.08,9.56v3.38a38.35,38.35,0,0,0,1.08,9.58,20.85,20.85,0,0,0,3.13,7,13.41,13.41,0,0,0,5,4.26,14.43,14.43,0,0,0,6.5,1.44q7.45,0,11.47-5.68t4-16.59Z"/><path class="cls-8" d="M2347.68,258.39v43.22a23.49,23.49,0,0,1-1.88,9.71,19.74,19.74,0,0,1-5.17,7,22,22,0,0,1-7.68,4.19,30.64,30.64,0,0,1-9.41,1.4,31.48,31.48,0,0,1-9.61-1.4,21.52,21.52,0,0,1-7.65-4.19,19.13,19.13,0,0,1-5.06-7,24.17,24.17,0,0,1-1.82-9.71V258.39h11.18v43.22a17.66,17.66,0,0,0,.91,6,10.73,10.73,0,0,0,2.6,4.15,10.22,10.22,0,0,0,4.08,2.42,17.32,17.32,0,0,0,5.37.78,17.5,17.5,0,0,0,5.39-.78,10,10,0,0,0,4.08-2.42,10.82,10.82,0,0,0,2.58-4.15,17.66,17.66,0,0,0,.91-6V258.39Z"/><path class="cls-8" d="M2392.49,298.1H2380V323h-11.23v-64.6h22.72a35.54,35.54,0,0,1,9.89,1.26,20.38,20.38,0,0,1,7.35,3.73,15.78,15.78,0,0,1,4.55,6.1,21.45,21.45,0,0,1,1.55,8.43,18.12,18.12,0,0,1-3.13,10.85,19.9,19.9,0,0,1-8.72,6.72l14.51,26.94V323h-12Zm-12.51-9h11.53a15.64,15.64,0,0,0,5.28-.8,10.51,10.51,0,0,0,3.78-2.22,9,9,0,0,0,2.26-3.37,11.87,11.87,0,0,0,.75-4.3,13.38,13.38,0,0,0-.71-4.51,9.08,9.08,0,0,0-2.17-3.46,9.79,9.79,0,0,0-3.75-2.22,17.37,17.37,0,0,0-5.48-.77H2380Z"/><path class="cls-5" d="M2489.33,730.27a85.2,85.2,0,1,1,13.59-119.71A85.28,85.28,0,0,1,2489.33,730.27Zm-98.22-123.39A72.51,72.51,0,1,0,2493,618.46,72.6,72.6,0,0,0,2391.11,606.88Z"/><path class="cls-5" d="M2579.82,844a7.53,7.53,0,0,1-10.58-1.2L2481,731.94a7.53,7.53,0,0,1,11.78-9.38L2581,833.38A7.52,7.52,0,0,1,2579.82,844Z"/><rect class="cls-22" x="1184.89" y="1178.3" width="26.45" height="47.24"/><polygon class="cls-22" points="1169.59 1178.3 1224.83 1178.3 1198.11 1137.92 1169.59 1178.3"/><rect class="cls-13" x="1118.94" y="1137.92" width="26.45" height="47.24" transform="translate(2264.33 2323.07) rotate(180)"/><polygon class="cls-13" points="1160.68 1185.16 1105.44 1185.16 1132.16 1225.54 1160.68 1185.16"/><rect class="cls-22" x="1698.33" y="301.46" width="21.54" height="38.47" transform="translate(2029.79 -1388.4) rotate(90)"/><polygon class="cls-22" points="1728.33 297.47 1728.33 342.45 1761.22 320.69 1728.33 297.47"/><rect class="cls-2" x="1731.21" y="247.75" width="21.54" height="38.47" transform="translate(1474.99 2008.97) rotate(-90)"/><polygon class="cls-2" points="1722.75 290.21 1722.75 245.23 1689.86 266.99 1722.75 290.21"/><path class="cls-8" d="M563,180.25v11.39H540.21V240.2H526.69V180.25Z"/><path class="cls-8" d="M609.58,214.85H587.52v14.23h24.64V240.2H574V180.25h36.91v11.12H587.52v12.45h22.06Z"/><path class="cls-8" d="M639.46,180.25V240.2H625.94V180.25Z"/><path class="cls-8" d="M669.61,224.81l-4.27,15.39h-14l18.23-59.95H687.4l18.68,59.95H691.4l-4.62-15.39Zm15.21-10.14L681.09,202c-1.07-3.55-2.14-8-3-11.56h-.18c-.89,3.56-1.77,8.1-2.75,11.56l-3.56,12.72Z"/><path class="cls-8" d="M754.91,229.08h28.55V240.2H737.65v-7.65l17.79-22.06-16.81-21.43v-8.81h42.6v11.12H755.88v.27L769.94,210l-15,18.77Z"/><path class="cls-8" d="M810.67,224.81,806.4,240.2h-14l18.23-59.95h17.79l18.68,59.95H832.46l-4.62-15.39Zm15.21-10.14L822.14,202c-1.06-3.55-2.13-8-3-11.56h-.18c-.89,3.56-1.78,8.1-2.76,11.56l-3.55,12.72Z"/><path class="cls-8" d="M873.55,229.08H902.1V240.2H856.3v-7.65l17.78-22.06-16.81-21.43v-8.81h42.61v11.12H874.53v.27L888.58,210l-15,18.77Z"/></g></g></svg>