<svg xmlns="http://www.w3.org/2000/svg" viewBox="0 0 1396.36 20.24"><defs><style>.cls-1{fill:#e84241;}.cls-2{fill:#efefef;}</style></defs><g id="Ebene_2" data-name="Ebene 2"><g id="Ebene_1-2" data-name="Ebene 1"><rect class="cls-1" y="10.12" width="10.12" height="10.12"/><rect class="cls-2" width="10.12" height="10.12"/><rect class="cls-2" x="10.12" y="10.12" width="10.12" height="10.12"/><rect class="cls-2" x="20.24" width="10.12" height="10.12"/><rect class="cls-2" x="30.36" y="10.12" width="10.12" height="10.12"/><rect class="cls-2" x="40.47" width="10.12" height="10.12"/><rect class="cls-2" x="50.59" y="10.12" width="10.12" height="10.12"/><rect class="cls-2" x="60.71" width="10.12" height="10.12"/><rect class="cls-2" x="70.83" y="10.12" width="10.12" height="10.12"/><rect class="cls-2" x="80.95" width="10.12" height="10.12"/><rect class="cls-2" x="91.07" y="10.12" width="10.12" height="10.12"/><rect class="cls-2" x="101.19" width="10.12" height="10.12"/><rect class="cls-2" x="111.3" y="10.12" width="10.12" height="10.12"/><rect class="cls-2" x="121.42" width="10.12" height="10.12"/><rect class="cls-2" x="131.54" y="10.12" width="10.12" height="10.12"/><rect class="cls-2" x="141.66" width="10.12" height="10.12"/><rect class="cls-2" x="151.78" y="10.12" width="10.12" height="10.12"/><rect class="cls-2" x="161.9" width="10.12" height="10.12"/><rect class="cls-2" x="172.02" y="10.12" width="10.12" height="10.12"/><rect class="cls-2" x="182.13" width="10.12" height="10.12"/><rect class="cls-2" x="192.25" y="10.12" width="10.12" height="10.12"/><rect class="cls-2" x="202.37" width="10.12" height="10.12"/><rect class="cls-2" x="212.49" y="10.12" width="10.12" height="10.12"/><rect class="cls-2" x="222.61" width="10.12" height="10.12"/><rect class="cls-2" x="232.73" y="10.12" width="10.12" height="10.12"/><rect class="cls-2" x="242.85" width="10.12" height="10.12"/><rect class="cls-2" x="252.96" y="10.12" width="10.12" height="10.12"/><rect class="cls-2" x="263.08" width="10.12" height="10.12"/><rect class="cls-2" x="273.2" y="10.12" width="10.12" height="10.12"/><rect class="cls-2" x="283.32" width="10.12" height="10.12"/><rect class="cls-2" x="293.44" y="10.12" width="10.12" height="10.12"/><rect class="cls-2" x="303.56" width="10.12" height="10.12"/><rect class="cls-2" x="313.68" y="10.12" width="10.12" height="10.12"/><rect class="cls-2" x="323.79" width="10.12" height="10.12"/><rect class="cls-2" x="333.91" y="10.12" width="10.12" height="10.12"/><rect class="cls-2" x="344.03" width="10.12" height="10.12"/><rect class="cls-2" x="354.15" y="10.12" width="10.12" height="10.12"/><rect class="cls-2" x="364.27" width="10.12" height="10.12"/><rect class="cls-2" x="374.39" y="10.12" width="10.12" height="10.12"/><rect class="cls-2" x="384.51" width="10.12" height="10.12"/><rect class="cls-2" x="394.62" y="10.12" width="10.12" height="10.12"/><rect class="cls-2" x="404.74" width="10.12" height="10.12"/><rect class="cls-2" x="414.86" y="10.12" width="10.12" height="10.12"/><rect class="cls-2" x="424.98" width="10.12" height="10.12"/><rect class="cls-2" x="435.1" y="10.12" width="10.12" height="10.12"/><rect class="cls-2" x="445.22" width="10.12" height="10.12"/><rect class="cls-2" x="455.34" y="10.12" width="10.12" height="10.12"/><rect class="cls-2" x="465.45" width="10.12" height="10.12"/><rect class="cls-2" x="475.57" y="10.12" width="10.12" height="10.12"/><rect class="cls-2" x="485.69" width="10.12" height="10.12"/><rect class="cls-2" x="495.81" y="10.12" width="10.12" height="10.12"/><rect class="cls-2" x="505.93" width="10.12" height="10.12"/><rect class="cls-2" x="516.05" y="10.12" width="10.12" height="10.12"/><rect class="cls-2" x="526.17" width="10.12" height="10.12"/><rect class="cls-2" x="536.28" y="10.12" width="10.12" height="10.12"/><rect class="cls-2" x="546.4" width="10.12" height="10.12"/><rect class="cls-2" x="556.52" y="10.12" width="10.12" height="10.12"/><rect class="cls-2" x="566.64" width="10.12" height="10.12"/><rect class="cls-2" x="576.76" y="10.12" width="10.12" height="10.12"/><rect class="cls-2" x="586.88" width="10.12" height="10.12"/><rect class="cls-2" x="597" y="10.12" width="10.12" height="10.12"/><rect class="cls-2" x="607.11" width="10.12" height="10.12"/><rect class="cls-2" x="617.23" y="10.12" width="10.12" height="10.12"/><rect class="cls-2" x="627.35" width="10.12" height="10.12"/><rect class="cls-2" x="637.47" y="10.12" width="10.12" height="10.12"/><rect class="cls-2" x="647.59" width="10.12" height="10.12"/><rect class="cls-2" x="657.71" y="10.12" width="10.12" height="10.12"/><rect class="cls-2" x="667.83" width="10.12" height="10.12"/><rect class="cls-2" x="677.94" y="10.12" width="10.12" height="10.12"/><rect class="cls-2" x="688.06" width="10.12" height="10.12"/><rect class="cls-1" x="20.24" y="10.12" width="10.12" height="10.12"/><rect class="cls-1" x="10.12" width="10.12" height="10.12"/><rect class="cls-1" x="40.47" y="10.12" width="10.12" height="10.12"/><rect class="cls-1" x="30.36" width="10.12" height="10.12"/><rect class="cls-1" x="60.71" y="10.12" width="10.12" height="10.12"/><rect class="cls-1" x="50.59" width="10.12" height="10.12"/><rect class="cls-1" x="80.95" y="10.12" width="10.12" height="10.12"/><rect class="cls-1" x="70.83" width="10.12" height="10.12"/><rect class="cls-1" x="101.19" y="10.12" width="10.12" height="10.12"/><rect class="cls-1" x="91.07" width="10.12" height="10.12"/><rect class="cls-1" x="121.42" y="10.12" width="10.12" height="10.12"/><rect class="cls-1" x="111.3" width="10.12" height="10.12"/><rect class="cls-1" x="141.66" y="10.12" width="10.12" height="10.12"/><rect class="cls-1" x="131.54" width="10.12" height="10.12"/><rect class="cls-1" x="161.9" y="10.12" width="10.12" height="10.12"/><rect class="cls-1" x="151.78" width="10.12" height="10.12"/><rect class="cls-1" x="182.13" y="10.12" width="10.12" height="10.12"/><rect class="cls-1" x="172.02" width="10.12" height="10.12"/><rect class="cls-1" x="202.37" y="10.12" width="10.12" height="10.12"/><rect class="cls-1" x="192.25" width="10.12" height="10.12"/><rect class="cls-1" x="222.61" y="10.12" width="10.12" height="10.12"/><rect class="cls-1" x="212.49" width="10.12" height="10.12"/><rect class="cls-1" x="242.85" y="10.12" width="10.12" height="10.12"/><rect class="cls-1" x="232.73" width="10.12" height="10.12"/><rect class="cls-1" x="263.08" y="10.12" width="10.12" height="10.12"/><rect class="cls-1" x="252.96" width="10.12" height="10.12"/><rect class="cls-1" x="283.32" y="10.12" width="10.12" height="10.12"/><rect class="cls-1" x="273.2" width="10.12" height="10.12"/><rect class="cls-1" x="303.56" y="10.12" width="10.12" height="10.12"/><rect class="cls-1" x="293.44" width="10.12" height="10.12"/><rect class="cls-1" x="323.79" y="10.12" width="10.12" height="10.12"/><rect class="cls-1" x="313.68" width="10.12" height="10.12"/><rect class="cls-1" x="344.03" y="10.12" width="10.12" height="10.12"/><rect class="cls-1" x="333.91" width="10.12" height="10.12"/><rect class="cls-1" x="364.27" y="10.12" width="10.12" height="10.12"/><rect class="cls-1" x="354.15" width="10.12" height="10.12"/><rect class="cls-1" x="384.51" y="10.12" width="10.12" height="10.12"/><rect class="cls-1" x="374.39" width="10.12" height="10.12"/><rect class="cls-1" x="404.74" y="10.12" width="10.12" height="10.12"/><rect class="cls-1" x="394.62" width="10.12" height="10.12"/><rect class="cls-1" x="424.98" y="10.12" width="10.12" height="10.12"/><rect class="cls-1" x="414.86" width="10.12" height="10.12"/><rect class="cls-1" x="445.22" y="10.12" width="10.12" height="10.12"/><rect class="cls-1" x="435.1" width="10.12" height="10.12"/><rect class="cls-1" x="465.45" y="10.12" width="10.12" height="10.12"/><rect class="cls-1" x="455.34" width="10.12" height="10.12"/><rect class="cls-1" x="485.69" y="10.12" width="10.12" height="10.12"/><rect class="cls-1" x="475.57" width="10.12" height="10.12"/><rect class="cls-1" x="505.93" y="10.12" width="10.12" height="10.12"/><rect class="cls-1" x="495.81" width="10.12" height="10.12"/><rect class="cls-1" x="526.17" y="10.12" width="10.12" height="10.12"/><rect class="cls-1" x="516.05" width="10.12" height="10.12"/><rect class="cls-1" x="546.4" y="10.12" width="10.12" height="10.12"/><rect class="cls-1" x="536.28" width="10.12" height="10.12"/><rect class="cls-1" x="566.64" y="10.12" width="10.12" height="10.12"/><rect class="cls-1" x="556.52" width="10.12" height="10.12"/><rect class="cls-1" x="586.88" y="10.12" width="10.12" height="10.12"/><rect class="cls-1" x="576.76" width="10.12" height="10.12"/><rect class="cls-1" x="607.11" y="10.12" width="10.12" height="10.12"/><rect class="cls-1" x="597" width="10.12" height="10.12"/><rect class="cls-1" x="627.35" y="10.12" width="10.12" height="10.12"/><rect class="cls-1" x="617.23" width="10.12" height="10.12"/><rect class="cls-1" x="647.59" y="10.12" width="10.12" height="10.12"/><rect class="cls-1" x="637.47" width="10.12" height="10.12"/><rect class="cls-1" x="667.83" y="10.12" width="10.12" height="10.12"/><rect class="cls-1" x="657.71" width="10.12" height="10.12"/><rect class="cls-1" x="688.06" y="10.12" width="10.12" height="10.12"/><rect class="cls-1" x="677.94" width="10.12" height="10.12"/><rect class="cls-1" x="698.18" width="10.12" height="10.12"/><rect class="cls-2" x="698.18" y="10.12" width="10.12" height="10.12"/><rect class="cls-2" x="708.3" width="10.12" height="10.12"/><rect class="cls-2" x="718.42" y="10.12" width="10.12" height="10.12"/><rect class="cls-2" x="728.54" width="10.12" height="10.12"/><rect class="cls-2" x="738.66" y="10.12" width="10.12" height="10.12"/><rect class="cls-2" x="748.77" width="10.12" height="10.12"/><rect class="cls-2" x="758.89" y="10.12" width="10.12" height="10.12"/><rect class="cls-2" x="769.01" width="10.12" height="10.12"/><rect class="cls-2" x="779.13" y="10.12" width="10.12" height="10.12"/><rect class="cls-2" x="789.25" width="10.12" height="10.12"/><rect class="cls-2" x="799.37" y="10.12" width="10.12" height="10.12"/><rect class="cls-2" x="809.49" width="10.12" height="10.12"/><rect class="cls-2" x="819.61" y="10.12" width="10.12" height="10.12"/><rect class="cls-2" x="829.72" width="10.12" height="10.12"/><rect class="cls-2" x="839.84" y="10.12" width="10.12" height="10.12"/><rect class="cls-2" x="849.96" width="10.12" height="10.12"/><rect class="cls-2" x="860.08" y="10.12" width="10.12" height="10.12"/><rect class="cls-2" x="870.2" width="10.12" height="10.12"/><rect class="cls-2" x="880.32" y="10.12" width="10.12" height="10.12"/><rect class="cls-2" x="890.44" width="10.12" height="10.12"/><rect class="cls-2" x="900.55" y="10.12" width="10.12" height="10.12"/><rect class="cls-2" x="910.67" width="10.12" height="10.12"/><rect class="cls-2" x="920.79" y="10.12" width="10.12" height="10.12"/><rect class="cls-2" x="930.91" width="10.12" height="10.12"/><rect class="cls-2" x="941.03" y="10.12" width="10.12" height="10.12"/><rect class="cls-2" x="951.15" width="10.12" height="10.12"/><rect class="cls-2" x="961.27" y="10.12" width="10.12" height="10.12"/><rect class="cls-2" x="971.38" width="10.12" height="10.12"/><rect class="cls-2" x="981.5" y="10.12" width="10.12" height="10.12"/><rect class="cls-2" x="991.62" width="10.12" height="10.12"/><rect class="cls-2" x="1001.74" y="10.12" width="10.12" height="10.12"/><rect class="cls-2" x="1011.86" width="10.12" height="10.12"/><rect class="cls-2" x="1021.98" y="10.12" width="10.12" height="10.12"/><rect class="cls-2" x="1032.1" width="10.12" height="10.12"/><rect class="cls-2" x="1042.21" y="10.12" width="10.12" height="10.12"/><rect class="cls-2" x="1052.33" width="10.12" height="10.12"/><rect class="cls-2" x="1062.45" y="10.12" width="10.12" height="10.12"/><rect class="cls-2" x="1072.57" width="10.12" height="10.12"/><rect class="cls-2" x="1082.69" y="10.12" width="10.12" height="10.12"/><rect class="cls-2" x="1092.81" width="10.12" height="10.12"/><rect class="cls-2" x="1102.93" y="10.12" width="10.12" height="10.12"/><rect class="cls-2" x="1113.04" width="10.12" height="10.12"/><rect class="cls-2" x="1123.16" y="10.12" width="10.12" height="10.12"/><rect class="cls-2" x="1133.28" width="10.12" height="10.12"/><rect class="cls-2" x="1143.4" y="10.12" width="10.12" height="10.12"/><rect class="cls-2" x="1153.52" width="10.12" height="10.12"/><rect class="cls-2" x="1163.64" y="10.12" width="10.12" height="10.12"/><rect class="cls-2" x="1173.76" width="10.12" height="10.12"/><rect class="cls-2" x="1183.87" y="10.12" width="10.12" height="10.12"/><rect class="cls-2" x="1193.99" width="10.12" height="10.12"/><rect class="cls-2" x="1204.11" y="10.12" width="10.12" height="10.12"/><rect class="cls-2" x="1214.23" width="10.12" height="10.12"/><rect class="cls-2" x="1224.35" y="10.12" width="10.12" height="10.12"/><rect class="cls-2" x="1234.47" width="10.12" height="10.12"/><rect class="cls-2" x="1244.59" y="10.12" width="10.12" height="10.12"/><rect class="cls-2" x="1254.7" width="10.12" height="10.12"/><rect class="cls-2" x="1264.82" y="10.12" width="10.12" height="10.12"/><rect class="cls-2" x="1274.94" width="10.12" height="10.12"/><rect class="cls-2" x="1285.06" y="10.12" width="10.12" height="10.12"/><rect class="cls-2" x="1295.18" width="10.12" height="10.12"/><rect class="cls-2" x="1305.3" y="10.12" width="10.12" height="10.12"/><rect class="cls-2" x="1315.42" width="10.12" height="10.12"/><rect class="cls-2" x="1325.53" y="10.12" width="10.12" height="10.12"/><rect class="cls-2" x="1335.65" width="10.12" height="10.12"/><rect class="cls-2" x="1345.77" y="10.12" width="10.12" height="10.12"/><rect class="cls-2" x="1355.89" width="10.12" height="10.12"/><rect class="cls-2" x="1366.01" y="10.12" width="10.12" height="10.12"/><rect class="cls-2" x="1376.13" width="10.12" height="10.12"/><rect class="cls-2" x="1386.25" y="10.12" width="10.12" height="10.12"/><rect class="cls-1" x="718.42" width="10.12" height="10.12"/><rect class="cls-1" x="708.3" y="10.12" width="10.12" height="10.12"/><rect class="cls-1" x="738.66" width="10.12" height="10.12"/><rect class="cls-1" x="728.54" y="10.12" width="10.12" height="10.12"/><rect class="cls-1" x="758.89" width="10.12" height="10.12"/><rect class="cls-1" x="748.77" y="10.12" width="10.12" height="10.12"/><rect class="cls-1" x="779.13" width="10.12" height="10.12"/><rect class="cls-1" x="769.01" y="10.12" width="10.12" height="10.12"/><rect class="cls-1" x="799.37" width="10.12" height="10.12"/><rect class="cls-1" x="789.25" y="10.12" width="10.12" height="10.12"/><rect class="cls-1" x="819.61" width="10.12" height="10.12"/><rect class="cls-1" x="809.49" y="10.12" width="10.12" height="10.12"/><rect class="cls-1" x="839.84" width="10.12" height="10.12"/><rect class="cls-1" x="829.72" y="10.12" width="10.12" height="10.12"/><rect class="cls-1" x="860.08" width="10.12" height="10.12"/><rect class="cls-1" x="849.96" y="10.12" width="10.12" height="10.12"/><rect class="cls-1" x="880.32" width="10.12" height="10.12"/><rect class="cls-1" x="870.2" y="10.12" width="10.12" height="10.12"/><rect class="cls-1" x="900.55" width="10.12" height="10.12"/><rect class="cls-1" x="890.44" y="10.12" width="10.12" height="10.12"/><rect class="cls-1" x="920.79" width="10.12" height="10.12"/><rect class="cls-1" x="910.67" y="10.12" width="10.12" height="10.12"/><rect class="cls-1" x="941.03" width="10.12" height="10.12"/><rect class="cls-1" x="930.91" y="10.12" width="10.12" height="10.12"/><rect class="cls-1" x="961.27" width="10.12" height="10.12"/><rect class="cls-1" x="951.15" y="10.12" width="10.12" height="10.12"/><rect class="cls-1" x="981.5" width="10.12" height="10.12"/><rect class="cls-1" x="971.38" y="10.12" width="10.12" height="10.12"/><rect class="cls-1" x="1001.74" width="10.12" height="10.12"/><rect class="cls-1" x="991.62" y="10.12" width="10.12" height="10.12"/><rect class="cls-1" x="1021.98" width="10.12" height="10.12"/><rect class="cls-1" x="1011.86" y="10.12" width="10.12" height="10.12"/><rect class="cls-1" x="1042.21" width="10.12" height="10.12"/><rect class="cls-1" x="1032.1" y="10.12" width="10.12" height="10.12"/><rect class="cls-1" x="1062.45" width="10.12" height="10.12"/><rect class="cls-1" x="1052.33" y="10.12" width="10.12" height="10.12"/><rect class="cls-1" x="1082.69" width="10.12" height="10.12"/><rect class="cls-1" x="1072.57" y="10.12" width="10.12" height="10.12"/><rect class="cls-1" x="1102.93" width="10.12" height="10.12"/><rect class="cls-1" x="1092.81" y="10.12" width="10.12" height="10.12"/><rect class="cls-1" x="1123.16" width="10.12" height="10.12"/><rect class="cls-1" x="1113.04" y="10.12" width="10.12" height="10.12"/><rect class="cls-1" x="1143.4" width="10.12" height="10.12"/><rect class="cls-1" x="1133.28" y="10.12" width="10.12" height="10.12"/><rect class="cls-1" x="1163.64" width="10.12" height="10.12"/><rect class="cls-1" x="1153.52" y="10.12" width="10.12" height="10.12"/><rect class="cls-1" x="1183.87" width="10.12" height="10.12"/><rect class="cls-1" x="1173.76" y="10.12" width="10.12" height="10.12"/><rect class="cls-1" x="1204.11" width="10.12" height="10.12"/><rect class="cls-1" x="1193.99" y="10.12" width="10.12" height="10.12"/><rect class="cls-1" x="1224.35" width="10.12" height="10.12"/><rect class="cls-1" x="1214.23" y="10.12" width="10.12" height="10.12"/><rect class="cls-1" x="1244.59" width="10.12" height="10.12"/><rect class="cls-1" x="1234.47" y="10.12" width="10.12" height="10.12"/><rect class="cls-1" x="1264.82" width="10.12" height="10.12"/><rect class="cls-1" x="1254.7" y="10.12" width="10.12" height="10.12"/><rect class="cls-1" x="1285.06" width="10.12" height="10.12"/><rect class="cls-1" x="1274.94" y="10.12" width="10.12" height="10.12"/><rect class="cls-1" x="1305.3" width="10.12" height="10.12"/><rect class="cls-1" x="1295.18" y="10.12" width="10.12" height="10.12"/><rect class="cls-1" x="1325.53" width="10.12" height="10.12"/><rect class="cls-1" x="1315.42" y="10.12" width="10.12" height="10.12"/><rect class="cls-1" x="1345.77" width="10.12" height="10.12"/><rect class="cls-1" x="1335.65" y="10.12" width="10.12" height="10.12"/><rect class="cls-1" x="1366.01" width="10.12" height="10.12"/><rect class="cls-1" x="1355.89" y="10.12" width="10.12" height="10.12"/><rect class="cls-1" x="1386.25" width="10.12" height="10.12"/><rect class="cls-1" x="1376.13" y="10.12" width="10.12" height="10.12"/></g></g></svg>