<svg xmlns="http://www.w3.org/2000/svg" xmlns:xlink="http://www.w3.org/1999/xlink" viewBox="0 0 2794.57 2800"><defs><style>.cls-1{isolation:isolate;}.cls-2{fill:url(#linear-gradient);}.cls-3{fill:#91b3fa;}.cls-4{opacity:0.63;}.cls-28,.cls-30,.cls-5,.cls-8{fill:#fff;}.cls-5{mix-blend-mode:overlay;}.cls-6{fill:#bdd0fb;}.cls-7{opacity:0.5;}.cls-9{fill:#7d97f4;}.cls-10{fill:url(#linear-gradient-2);}.cls-11{fill:url(#linear-gradient-3);}.cls-12{fill:url(#linear-gradient-4);}.cls-13{fill:url(#linear-gradient-5);}.cls-14{fill:url(#linear-gradient-6);}.cls-15{fill:url(#linear-gradient-7);}.cls-16{fill:url(#linear-gradient-8);}.cls-17{fill:url(#linear-gradient-9);}.cls-18{fill:url(#linear-gradient-10);}.cls-19{fill:url(#linear-gradient-11);}.cls-20{fill:url(#linear-gradient-12);}.cls-21{fill:url(#linear-gradient-13);}.cls-22{fill:url(#linear-gradient-14);}.cls-23{fill:url(#linear-gradient-15);}.cls-24{fill:url(#linear-gradient-16);}.cls-25{opacity:0.38;fill:url(#linear-gradient-17);}.cls-26{fill:url(#linear-gradient-18);}.cls-27{opacity:0.54;fill:url(#linear-gradient-19);}.cls-28{opacity:0.76;}.cls-29{fill:url(#linear-gradient-20);}.cls-30{opacity:0.6;}.cls-31{fill:url(#linear-gradient-21);}.cls-32{fill:url(#linear-gradient-22);}.cls-33{fill:url(#linear-gradient-23);}.cls-34{fill:url(#linear-gradient-24);}.cls-35{fill:url(#linear-gradient-25);}.cls-36{fill:url(#linear-gradient-26);}.cls-37{fill:url(#linear-gradient-27);}.cls-38{fill:url(#linear-gradient-28);}.cls-39{fill:url(#linear-gradient-29);}.cls-40{fill:url(#linear-gradient-30);}.cls-41{fill:url(#linear-gradient-31);}.cls-42{fill:url(#linear-gradient-32);}.cls-43{fill:url(#linear-gradient-33);}.cls-44{fill:url(#linear-gradient-34);}.cls-45{fill:url(#linear-gradient-35);}.cls-46{fill:url(#linear-gradient-36);}.cls-47{fill:url(#linear-gradient-37);}.cls-48{fill:url(#linear-gradient-38);}.cls-49{fill:url(#linear-gradient-39);}.cls-50{fill:url(#linear-gradient-40);}.cls-51{opacity:0.61;}.cls-52{fill:url(#linear-gradient-41);}.cls-53{fill:url(#linear-gradient-42);}.cls-54{fill:url(#linear-gradient-43);}.cls-55{fill:url(#linear-gradient-44);}.cls-56{fill:url(#linear-gradient-45);}.cls-57{fill:url(#linear-gradient-46);}.cls-58{fill:url(#linear-gradient-47);}.cls-59{fill:url(#linear-gradient-48);}.cls-60{fill:url(#linear-gradient-49);}.cls-61{fill:url(#linear-gradient-50);}.cls-62{fill:url(#linear-gradient-51);}.cls-63{fill:url(#linear-gradient-52);}.cls-64{fill:url(#linear-gradient-53);}.cls-65{fill:url(#linear-gradient-54);}.cls-66{fill:url(#linear-gradient-55);}.cls-67{fill:url(#linear-gradient-56);}</style><linearGradient id="linear-gradient" x1="3156.54" y1="3622.3" x2="667.88" y2="531.55" gradientUnits="userSpaceOnUse"><stop offset="0" stop-color="#dae3fe"/><stop offset="1" stop-color="#e9effd"/></linearGradient><linearGradient id="linear-gradient-2" x1="3186.87" y1="-6416.69" x2="2994.1" y2="-5843.46" gradientTransform="matrix(-1, 0, 0, 1, 2986.57, 0)" gradientUnits="userSpaceOnUse"><stop offset="0" stop-color="#ff928e"/><stop offset="1" stop-color="#fe7062"/></linearGradient><linearGradient id="linear-gradient-3" x1="1727.27" y1="1851.85" x2="418.27" y2="3505.86" gradientTransform="matrix(1, 0, 0, 1, 0, 0)" xlink:href="#linear-gradient-2"/><linearGradient id="linear-gradient-4" x1="3081.98" y1="761.78" x2="2889.21" y2="1335.02" gradientUnits="userSpaceOnUse"><stop offset="0" stop-color="#e1473d"/><stop offset="1" stop-color="#e9605a"/></linearGradient><linearGradient id="linear-gradient-5" x1="1050.51" y1="78.64" x2="857.75" y2="651.87" xlink:href="#linear-gradient-4"/><linearGradient id="linear-gradient-6" x1="1725.32" y1="305.56" x2="1532.55" y2="878.8" xlink:href="#linear-gradient-4"/><linearGradient id="linear-gradient-7" x1="1319.77" y1="32.29" x2="1328.23" y2="441.52" gradientTransform="matrix(-1, 0, 0, 1, 2986.57, 0)" gradientUnits="userSpaceOnUse"><stop offset="0" stop-color="#09005d"/><stop offset="1" stop-color="#1a0f91"/></linearGradient><linearGradient id="linear-gradient-8" x1="2064.5" y1="16.9" x2="2072.95" y2="426.14" xlink:href="#linear-gradient-7"/><linearGradient id="linear-gradient-9" x1="1809.67" y1="2161.16" x2="1065.76" y2="2251.33" gradientTransform="translate(17.17)" xlink:href="#linear-gradient-7"/><linearGradient id="linear-gradient-10" x1="1811.65" y1="2177.5" x2="1067.74" y2="2267.67" gradientTransform="translate(17.17)" xlink:href="#linear-gradient-7"/><linearGradient id="linear-gradient-11" x1="1813.02" y1="2188.8" x2="1069.11" y2="2278.97" gradientTransform="translate(17.17)" xlink:href="#linear-gradient-7"/><linearGradient id="linear-gradient-12" x1="1814.2" y1="2198.57" x2="1070.3" y2="2288.74" gradientTransform="translate(17.17)" xlink:href="#linear-gradient-7"/><linearGradient id="linear-gradient-13" x1="4314.67" y1="-6037.43" x2="4121.9" y2="-5464.2" gradientTransform="matrix(-1, 0, 0, 1, 2986.57, 0)" xlink:href="#linear-gradient-4"/><linearGradient id="linear-gradient-14" x1="4939.81" y1="-5827.21" x2="4747.04" y2="-5253.97" gradientTransform="matrix(-1, 0, 0, 1, 2986.57, 0)" xlink:href="#linear-gradient-4"/><linearGradient id="linear-gradient-15" x1="2104.04" y1="432.92" x2="1911.27" y2="1006.15" xlink:href="#linear-gradient-4"/><linearGradient id="linear-gradient-16" x1="787.95" y1="2554.72" x2="1322.33" y2="2119.94" gradientTransform="matrix(-0.71, -0.71, -0.71, 0.71, 4494.95, 1341.76)" xlink:href="#linear-gradient-7"/><linearGradient id="linear-gradient-17" x1="2271.04" y1="1609.52" x2="1965.18" y2="3409.08" gradientTransform="translate(220.17 -171.78) rotate(4.89)" gradientUnits="userSpaceOnUse"><stop offset="0" stop-color="#4f52ff"/><stop offset="1" stop-color="#4042e2"/></linearGradient><linearGradient id="linear-gradient-18" x1="2280.28" y1="2554.72" x2="2814.66" y2="2119.94" gradientTransform="matrix(-0.71, -0.71, -0.71, 0.71, 4057.86, 2397)" xlink:href="#linear-gradient-7"/><linearGradient id="linear-gradient-19" x1="820.61" y1="1363.01" x2="514.75" y2="3162.57" gradientTransform="translate(1946.03 285.17) rotate(45)" xlink:href="#linear-gradient-17"/><linearGradient id="linear-gradient-20" x1="5523.49" y1="-5630.93" x2="5330.72" y2="-5057.69" gradientTransform="matrix(-1, 0, 0, 1, 2986.57, 0)" xlink:href="#linear-gradient-4"/><linearGradient id="linear-gradient-21" x1="3799.34" y1="-6210.73" x2="3606.58" y2="-5637.5" xlink:href="#linear-gradient-2"/><linearGradient id="linear-gradient-22" x1="1241.7" y1="2395.82" x2="1482.07" y2="2200.25" xlink:href="#linear-gradient-7"/><linearGradient id="linear-gradient-23" x1="1241.7" y1="2207.5" x2="1482.07" y2="2011.93" xlink:href="#linear-gradient-7"/><linearGradient id="linear-gradient-24" x1="3194.98" y1="799.78" x2="3002.22" y2="1373.02" xlink:href="#linear-gradient-4"/><linearGradient id="linear-gradient-25" x1="142.65" y1="-1825.23" x2="151.1" y2="-1415.98" gradientTransform="translate(261.63 -414) rotate(0.01)" xlink:href="#linear-gradient-7"/><linearGradient id="linear-gradient-26" x1="180.31" y1="-1826.01" x2="188.77" y2="-1416.76" gradientTransform="translate(237.73 -406.58) rotate(-2.06)" xlink:href="#linear-gradient-7"/><linearGradient id="linear-gradient-27" x1="218.1" y1="-1826.79" x2="226.56" y2="-1417.54" gradientTransform="translate(237.73 -406.58) rotate(-2.06)" xlink:href="#linear-gradient-7"/><linearGradient id="linear-gradient-28" x1="252.93" y1="-1827.51" x2="261.39" y2="-1418.26" gradientTransform="translate(237.73 -406.58) rotate(-2.06)" xlink:href="#linear-gradient-7"/><linearGradient id="linear-gradient-29" x1="293.55" y1="-1828.34" x2="302.01" y2="-1419.09" gradientTransform="translate(237.73 -406.58) rotate(-2.06)" xlink:href="#linear-gradient-7"/><linearGradient id="linear-gradient-30" x1="331.28" y1="-1829.13" x2="339.73" y2="-1419.88" gradientTransform="translate(237.73 -406.58) rotate(-2.06)" xlink:href="#linear-gradient-7"/><linearGradient id="linear-gradient-31" x1="369.06" y1="-1829.9" x2="377.52" y2="-1420.66" gradientTransform="translate(237.73 -406.58) rotate(-2.06)" xlink:href="#linear-gradient-7"/><linearGradient id="linear-gradient-32" x1="403.83" y1="-1830.63" x2="412.29" y2="-1421.38" gradientTransform="translate(237.73 -406.58) rotate(-2.06)" xlink:href="#linear-gradient-7"/><linearGradient id="linear-gradient-33" x1="441.56" y1="-1831.4" x2="450.02" y2="-1422.16" gradientTransform="translate(237.73 -406.58) rotate(-2.06)" xlink:href="#linear-gradient-7"/><linearGradient id="linear-gradient-34" x1="479.34" y1="-1832.18" x2="487.8" y2="-1422.94" gradientTransform="translate(237.73 -406.58) rotate(-2.06)" xlink:href="#linear-gradient-7"/><linearGradient id="linear-gradient-35" x1="514.12" y1="-1832.91" x2="522.57" y2="-1423.67" gradientTransform="translate(259.3 -427.32) rotate(0.01)" xlink:href="#linear-gradient-7"/><linearGradient id="linear-gradient-36" x1="1322.78" y1="-194.75" x2="1133.38" y2="-30.16" gradientTransform="matrix(1, 0, 0, 1, 0, 0)" xlink:href="#linear-gradient-7"/><linearGradient id="linear-gradient-37" x1="2026.33" y1="2736.73" x2="2065.82" y2="2736.73" gradientTransform="matrix(1, 0, 0, 1, 0, 0)" xlink:href="#linear-gradient-17"/><linearGradient id="linear-gradient-38" x1="1818.73" y1="2736.73" x2="1858.23" y2="2736.73" gradientTransform="matrix(1, 0, 0, 1, 0, 0)" xlink:href="#linear-gradient-17"/><linearGradient id="linear-gradient-39" x1="3216.07" y1="1142.78" x2="2641.11" y2="1744.79" gradientTransform="matrix(1, 0, 0, 1, 0, 0)" xlink:href="#linear-gradient-17"/><linearGradient id="linear-gradient-40" x1="1768.14" y1="2479.7" x2="2110.62" y2="2479.7" gradientTransform="matrix(1, 0, 0, 1, 0, 0)" xlink:href="#linear-gradient-17"/><linearGradient id="linear-gradient-41" x1="1946.68" y1="2379.49" x2="1938.13" y2="1669.52" gradientTransform="matrix(1, 0, 0, 1, 0, 0)" xlink:href="#linear-gradient-17"/><linearGradient id="linear-gradient-42" x1="2065.41" y1="2667.39" x2="2124.98" y2="2667.39" gradientUnits="userSpaceOnUse"><stop offset="0" stop-color="#a737d5"/><stop offset="1" stop-color="#ef497a"/></linearGradient><linearGradient id="linear-gradient-43" x1="2123.4" y1="2579.39" x2="2124.98" y2="2579.39" xlink:href="#linear-gradient-42"/><linearGradient id="linear-gradient-44" x1="1458.26" y1="781.6" x2="2192.36" y2="1793.47" gradientTransform="matrix(1, 0, 0, 1, 0, 0)" xlink:href="#linear-gradient-7"/><linearGradient id="linear-gradient-45" x1="2699.33" y1="4505.71" x2="3013.1" y2="5147.95" gradientTransform="translate(29.26 760.26) rotate(-29.26)" gradientUnits="userSpaceOnUse"><stop offset="0" stop-color="#febbba"/><stop offset="1" stop-color="#ff928e"/></linearGradient><linearGradient id="linear-gradient-46" x1="2218.65" y1="1286.45" x2="2025.88" y2="1859.69" gradientTransform="matrix(1, 0.08, -0.08, 1, 193.21, -123.74)" xlink:href="#linear-gradient-17"/><linearGradient id="linear-gradient-47" x1="2103.99" y1="1648.47" x2="2088.83" y2="1348.11" gradientTransform="matrix(1, 0.08, -0.08, 1, 193.21, -123.74)" xlink:href="#linear-gradient-45"/><linearGradient id="linear-gradient-48" x1="2141.99" y1="1603.19" x2="2325.51" y2="1276.58" gradientTransform="translate(-173.39 154.13) rotate(-4.63)" xlink:href="#linear-gradient-45"/><linearGradient id="linear-gradient-49" x1="1631.06" y1="656.25" x2="2365.22" y2="1668.2" gradientTransform="matrix(1, 0, 0, 1, 0, 0)" xlink:href="#linear-gradient-7"/><linearGradient id="linear-gradient-50" x1="2173.32" y1="1629.93" x2="2356.84" y2="1303.33" gradientTransform="translate(-173.39 154.13) rotate(-4.63)" xlink:href="#linear-gradient-45"/><linearGradient id="linear-gradient-51" x1="2319.23" y1="3987.4" x2="2632.99" y2="4629.64" gradientTransform="translate(190.93 464.59) rotate(-22.32)" xlink:href="#linear-gradient-45"/><linearGradient id="linear-gradient-52" x1="2427.9" y1="2747.29" x2="2427.9" y2="2868.55" gradientTransform="matrix(1, 0, 0, 1, 0, 0)" xlink:href="#linear-gradient-7"/><linearGradient id="linear-gradient-53" x1="2080.77" y1="2305.68" x2="2132.5" y2="2792.42" gradientTransform="matrix(1, 0, 0, 1, 0, 0)" xlink:href="#linear-gradient-45"/><linearGradient id="linear-gradient-54" x1="2084.36" y1="2863.8" x2="2099.62" y2="2599.23" gradientTransform="matrix(1, 0, 0, 1, 0, 0)" xlink:href="#linear-gradient-7"/><linearGradient id="linear-gradient-55" x1="2278.47" y1="2277.69" x2="2448.92" y2="2805.14" gradientTransform="matrix(1, 0, 0, 1, 0, 0)" xlink:href="#linear-gradient-45"/><linearGradient id="linear-gradient-56" x1="2253.31" y1="1905.53" x2="2212.44" y2="1485.14" gradientTransform="matrix(1, 0.08, -0.08, 1, 193.21, -123.74)" xlink:href="#linear-gradient-45"/></defs><g class="cls-1"><g id="Ebene_2" data-name="Ebene 2"><g id="Illustration"><path class="cls-2" d="M2471.89,2403.42c-57.16,60.18-111.25,99-154,129.65-502.33,360.43-1096.71,255.37-1223,229.71-186.54-37.89-547.12-111.12-807.81-417.69C-107.33,1881.28-45.91,1150.56,260,668.2,316,580,611.56,90.27,1212.34,11.74c363.59-47.53,787.42,48.32,1094.34,305.47C2950.94,857,2905.08,1947.38,2471.89,2403.42Z"/><path class="cls-3" d="M2443,849.26c-.37-10.62-16.36-19.16-35.95-19.16H1218.44c-19.86,0-41,8.8-41,19.57v1503.5c0,8,8.4,15.74,18.89,21.42s26,8.85,40.8,8.82l1201.59-1.77c14.95,0,29.57-3.3,40-9.09s16.34-13.64,16.06-21.74Z"/><g class="cls-4"><polygon class="cls-5" points="1760.38 936.64 1371.57 935.92 1371.72 909.55 1760.09 910.21 1760.38 936.64"/><polygon class="cls-5" points="1761.45 1033.77 1371.04 1032.8 1371.19 1006.22 1761.15 1007.12 1761.45 1033.77"/><polygon class="cls-5" points="1762.52 1131.69 1370.5 1130.49 1370.65 1103.68 1762.23 1104.82 1762.52 1131.69"/><polygon class="cls-5" points="1763.61 1230.43 1369.96 1228.98 1370.11 1201.95 1763.31 1203.34 1763.61 1230.43"/><polygon class="cls-5" points="1764.7 1329.99 1369.42 1328.29 1369.57 1301.04 1764.4 1302.67 1764.7 1329.99"/><polygon class="cls-5" points="1766.91 1531.62 1368.31 1529.41 1368.46 1501.7 1766.61 1503.84 1766.91 1531.62"/><polygon class="cls-5" points="1770.3 1840.5 1366.62 1837.5 1366.77 1809.08 1769.99 1812.01 1770.3 1840.5"/><polygon class="cls-5" points="1765.8 1430.38 1368.87 1428.43 1369.02 1400.95 1765.5 1402.83 1765.8 1430.38"/><polygon class="cls-5" points="1768.03 1633.71 1367.75 1631.24 1367.9 1603.3 1767.72 1605.7 1768.03 1633.71"/><polygon class="cls-5" points="1769.16 1736.67 1367.18 1733.93 1367.34 1705.76 1768.85 1708.41 1769.16 1736.67"/><polygon class="cls-5" points="1771.45 1945.22 1366.04 1941.94 1366.2 1913.28 1771.13 1916.48 1771.45 1945.22"/><polygon class="cls-5" points="1772.61 2050.84 1365.46 2047.28 1365.62 2018.38 1772.29 2021.85 1772.61 2050.84"/><polygon class="cls-5" points="1773.78 2157.37 1364.88 2153.53 1365.04 2124.37 1773.46 2128.13 1773.78 2157.37"/><polygon class="cls-5" points="1774.96 2264.82 1364.29 2260.69 1364.45 2231.28 1774.63 2235.33 1774.96 2264.82"/><polygon class="cls-5" points="2270.14 937.6 1878.89 936.87 1878.47 910.42 2269.27 911.09 2270.14 937.6"/><polygon class="cls-5" points="2273.31 1035.03 1880.44 1034.06 1880.02 1007.39 2272.44 1008.3 2273.31 1035.03"/><polygon class="cls-5" points="2276.51 1133.27 1882.01 1132.06 1881.58 1105.17 2275.63 1106.32 2276.51 1133.27"/><polygon class="cls-5" points="2279.74 1232.33 1883.59 1230.87 1883.16 1203.76 2278.85 1205.15 2279.74 1232.33"/><polygon class="cls-5" points="2282.99 1332.22 1885.19 1330.51 1884.75 1303.17 2282.1 1304.81 2282.99 1332.22"/><polygon class="cls-5" points="2289.58 1534.51 1888.41 1532.29 1887.97 1504.49 2288.67 1506.64 2289.58 1534.51"/><polygon class="cls-5" points="2299.68 1844.43 1893.36 1841.41 1892.9 1812.9 2298.74 1815.84 2299.68 1844.43"/><polygon class="cls-5" points="2286.27 1432.94 1886.8 1430.98 1886.35 1403.41 2285.37 1405.3 2286.27 1432.94"/><polygon class="cls-5" points="2292.92 1636.95 1890.05 1634.46 1889.6 1606.43 2292 1608.84 2292.92 1636.95"/><polygon class="cls-5" points="2296.28 1740.25 1891.7 1737.5 1891.24 1709.22 2295.36 1711.9 2296.28 1740.25"/><polygon class="cls-5" points="2303.1 1949.51 1895.04 1946.22 1894.58 1917.46 2302.16 1920.68 2303.1 1949.51"/><polygon class="cls-5" points="2306.55 2055.5 1896.73 2051.92 1896.26 2022.91 2305.6 2026.41 2306.55 2055.5"/><polygon class="cls-5" points="2310.03 2162.4 1898.43 2158.54 1897.96 2129.28 2309.08 2133.06 2310.03 2162.4"/><polygon class="cls-5" points="2313.55 2270.23 1900.15 2266.08 1899.68 2236.56 2312.58 2240.64 2313.55 2270.23"/></g><path class="cls-6" d="M1475.61,506.11c-.39-20.54-17-37.45-37.44-37.45H666.83c-20.68,0-41,17.79-41,38.62v1861.2c0,10,5.74,19.62,12.78,26.7s17.48,11,27.43,11l806.47-2.21a37.83,37.83,0,0,0,26.88-11.33,38.49,38.49,0,0,0,10.79-27.31Z"/><g class="cls-7"><polygon class="cls-8" points="907.56 687.99 687.82 687.69 686.08 574.28 906.03 574.28 907.56 687.99"/><polygon class="cls-8" points="1153.86 687.93 934.34 687.63 932.84 574.28 1152.57 574.28 1153.86 687.93"/><polygon class="cls-8" points="1399.91 687.87 1180.61 687.57 1179.35 574.28 1398.86 574.28 1399.91 687.87"/><polygon class="cls-8" points="910.3 891.55 690.95 891.69 689.22 779.02 908.78 778.93 910.3 891.55"/><polygon class="cls-8" points="1156.17 891.39 937.04 891.53 935.54 778.92 1154.89 778.83 1156.17 891.39"/><polygon class="cls-8" points="1401.8 891.23 1182.88 891.37 1181.63 778.82 1400.75 778.73 1401.8 891.23"/><polygon class="cls-8" points="913.04 1093.71 694.07 1093.95 692.34 981.67 911.52 981.49 913.04 1093.71"/><polygon class="cls-8" points="1158.48 1093.46 939.73 1093.69 938.24 981.47 1157.2 981.28 1158.48 1093.46"/><polygon class="cls-8" points="1403.68 1093.2 1185.15 1093.43 1183.89 981.26 1402.63 981.08 1403.68 1093.2"/><polygon class="cls-8" points="915.77 1295.18 697.18 1295.5 695.45 1183.61 914.25 1183.34 915.77 1295.18"/><polygon class="cls-8" points="1160.79 1294.82 942.41 1295.14 940.92 1183.31 1159.51 1183.04 1160.79 1294.82"/><polygon class="cls-8" points="1405.56 1294.46 1187.4 1294.78 1186.15 1183.01 1404.52 1182.73 1405.56 1294.46"/><polygon class="cls-8" points="918.49 1495.95 700.27 1496.36 698.56 1384.86 916.98 1384.5 918.49 1495.95"/><polygon class="cls-8" points="1163.08 1495.49 945.09 1495.9 943.6 1384.45 1161.81 1384.09 1163.08 1495.49"/><polygon class="cls-8" points="1407.43 1495.03 1189.65 1495.44 1188.4 1384.05 1406.39 1383.69 1407.43 1495.03"/><polygon class="cls-8" points="921.2 1696.03 703.36 1696.53 701.65 1585.41 919.69 1584.96 921.2 1696.03"/><polygon class="cls-8" points="1165.36 1695.47 947.75 1695.97 946.27 1584.9 1164.1 1584.45 1165.36 1695.47"/><polygon class="cls-8" points="1409.29 1694.91 1191.89 1695.41 1190.65 1584.4 1408.26 1583.95 1409.29 1694.91"/><polygon class="cls-8" points="923.89 1895.42 706.44 1896 704.73 1785.27 922.39 1784.73 923.89 1895.42"/><polygon class="cls-8" points="1167.64 1894.76 950.4 1895.34 948.93 1784.66 1166.38 1784.13 1167.64 1894.76"/><polygon class="cls-8" points="1411.15 1894.1 1194.12 1894.69 1192.88 1784.06 1410.12 1783.53 1411.15 1894.1"/><polygon class="cls-8" points="926.58 2094.12 709.5 2094.79 707.8 1984.44 925.09 1983.81 926.58 2094.12"/><polygon class="cls-8" points="1169.91 2093.36 953.04 2094.04 951.58 1983.74 1168.65 1983.11 1169.91 2093.36"/><polygon class="cls-8" points="1413 2092.61 1196.34 2093.28 1195.11 1983.04 1411.97 1982.41 1413 2092.61"/><polygon class="cls-8" points="929.26 2292.14 712.56 2292.9 710.86 2182.92 927.77 2182.21 929.26 2292.14"/><polygon class="cls-8" points="1172.17 2291.29 955.68 2292.05 954.22 2182.12 1170.92 2181.41 1172.17 2291.29"/><polygon class="cls-8" points="1414.84 2290.44 1198.56 2291.2 1197.33 2181.33 1413.82 2180.62 1414.84 2290.44"/></g><path class="cls-6" d="M934.66,1100.37c-.4-14-18.15-25.44-39.9-25.44h-822c-22,0-43.68,12.08-43.68,26.23V2365.91c0,6.81,6.11,13.33,13.61,18.14s18.63,7.5,29.24,7.48l859.5-1.51c10.69,0,21.16-2.79,28.64-7.7s11.7-11.69,11.5-18.55Z"/><g class="cls-7"><polygon class="cls-8" points="329.27 1223.96 95.08 1223.76 93.22 1146.69 327.64 1146.69 329.27 1223.96"/><polygon class="cls-8" points="591.76 1223.92 357.81 1223.72 356.21 1146.69 590.39 1146.69 591.76 1223.92"/><polygon class="cls-8" points="853.99 1223.88 620.28 1223.68 618.93 1146.69 852.87 1146.69 853.99 1223.88"/><polygon class="cls-8" points="332.19 1362.29 98.42 1362.39 96.57 1285.82 330.57 1285.76 332.19 1362.29"/><polygon class="cls-8" points="594.23 1362.18 360.69 1362.28 359.09 1285.76 592.86 1285.69 594.23 1362.18"/><polygon class="cls-8" points="856 1362.07 622.7 1362.17 621.35 1285.68 854.89 1285.62 856 1362.07"/><polygon class="cls-8" points="335.11 1499.67 101.74 1499.83 99.9 1423.53 333.49 1423.4 335.11 1499.67"/><polygon class="cls-8" points="596.69 1499.49 363.56 1499.65 361.96 1423.39 595.33 1423.27 596.69 1499.49"/><polygon class="cls-8" points="858.01 1499.32 625.11 1499.47 623.77 1423.25 856.9 1423.13 858.01 1499.32"/><polygon class="cls-8" points="338.02 1636.57 105.05 1636.79 103.22 1560.76 336.4 1560.57 338.02 1636.57"/><polygon class="cls-8" points="599.14 1636.33 366.41 1636.54 364.83 1560.55 597.78 1560.37 599.14 1636.33"/><polygon class="cls-8" points="860.01 1636.08 627.51 1636.3 626.18 1560.34 858.9 1560.16 860.01 1636.08"/><polygon class="cls-8" points="340.91 1773 108.35 1773.28 106.52 1697.51 339.31 1697.26 340.91 1773"/><polygon class="cls-8" points="601.59 1772.69 369.26 1772.96 367.68 1697.23 600.23 1696.99 601.59 1772.69"/><polygon class="cls-8" points="862 1772.38 629.91 1772.65 628.58 1696.96 860.9 1696.71 862 1772.38"/><polygon class="cls-8" points="343.8 1908.96 111.64 1909.3 109.82 1833.79 342.2 1833.48 343.8 1908.96"/><polygon class="cls-8" points="604.02 1908.58 372.1 1908.92 370.52 1833.44 602.67 1833.14 604.02 1908.58"/><polygon class="cls-8" points="863.99 1908.2 632.29 1908.54 630.97 1833.1 862.89 1832.8 863.99 1908.2"/><polygon class="cls-8" points="346.68 2044.45 114.92 2044.85 113.1 1969.6 345.08 1969.23 346.68 2044.45"/><polygon class="cls-8" points="606.45 2044 374.93 2044.4 373.36 1969.19 605.1 1968.82 606.45 2044"/><polygon class="cls-8" points="865.97 2043.56 634.67 2043.95 633.35 1968.78 864.87 1968.41 865.97 2043.56"/><polygon class="cls-8" points="349.54 2179.47 118.19 2179.93 116.37 2104.94 347.95 2104.52 349.54 2179.47"/><polygon class="cls-8" points="608.87 2178.96 377.74 2179.42 376.18 2104.46 607.53 2104.04 608.87 2178.96"/><polygon class="cls-8" points="867.94 2178.45 637.04 2178.9 635.73 2103.99 866.84 2103.57 867.94 2178.45"/><polygon class="cls-8" points="352.4 2314.03 121.44 2314.55 119.63 2239.82 350.81 2239.33 352.4 2314.03"/><polygon class="cls-8" points="611.28 2313.45 380.55 2313.97 378.99 2239.28 609.94 2238.79 611.28 2313.45"/><polygon class="cls-8" points="869.9 2312.88 639.4 2313.39 638.09 2238.73 868.81 2238.25 869.9 2312.88"/></g><path class="cls-9" d="M2728.91,648.61c-.35-18.85-15.63-34.36-34.35-34.36h-707.8c-19,0-37.61,16.32-37.61,35.43V2357.57c0,9.19,5.26,18,11.72,24.49a36.09,36.09,0,0,0,25.17,10.1l740-2a34.7,34.7,0,0,0,24.66-10.4,35.25,35.25,0,0,0,9.9-25.06Z"/><g class="cls-7"><polygon class="cls-8" points="2207.66 815.5 2006.02 815.23 2004.42 711.16 2206.25 711.16 2207.66 815.5"/><polygon class="cls-8" points="2433.67 815.45 2232.23 815.18 2230.85 711.16 2432.48 711.16 2433.67 815.45"/><polygon class="cls-8" points="2659.45 815.4 2458.22 815.12 2457.06 711.16 2658.48 711.16 2659.45 815.4"/><polygon class="cls-8" points="2210.18 1002.3 2008.89 1002.43 2007.3 899.04 2208.78 898.96 2210.18 1002.3"/><polygon class="cls-8" points="2435.79 1002.15 2234.71 1002.28 2233.34 898.95 2434.61 898.86 2435.79 1002.15"/><polygon class="cls-8" points="2661.18 1002.01 2460.3 1002.14 2459.15 898.85 2660.22 898.77 2661.18 1002.01"/><polygon class="cls-8" points="2212.69 1187.81 2011.75 1188.02 2010.17 1084.99 2211.29 1084.83 2212.69 1187.81"/><polygon class="cls-8" points="2437.91 1187.57 2237.18 1187.78 2235.81 1084.81 2436.74 1084.64 2437.91 1187.57"/><polygon class="cls-8" points="2662.91 1187.33 2462.38 1187.55 2461.23 1084.62 2661.95 1084.45 2662.91 1187.33"/><polygon class="cls-8" points="2215.19 1372.68 2014.61 1372.97 2013.02 1270.3 2213.8 1270.05 2215.19 1372.68"/><polygon class="cls-8" points="2440.02 1372.35 2239.64 1372.64 2238.27 1270.02 2438.85 1269.77 2440.02 1372.35"/><polygon class="cls-8" points="2664.63 1372.02 2464.45 1372.31 2463.3 1269.74 2663.68 1269.49 2664.63 1372.02"/><polygon class="cls-8" points="2217.68 1556.91 2017.45 1557.29 2015.87 1454.97 2216.3 1454.64 2217.68 1556.91"/><polygon class="cls-8" points="2442.13 1556.49 2242.09 1556.87 2240.73 1454.6 2440.96 1454.27 2442.13 1556.49"/><polygon class="cls-8" points="2666.35 1556.07 2466.51 1556.44 2465.37 1454.23 2665.39 1453.9 2666.35 1556.07"/><polygon class="cls-8" points="2220.17 1740.51 2020.28 1740.96 2018.71 1639 2218.79 1638.59 2220.17 1740.51"/><polygon class="cls-8" points="2444.22 1739.99 2244.53 1740.45 2243.18 1638.54 2443.06 1638.13 2444.22 1739.99"/><polygon class="cls-8" points="2668.06 1739.48 2468.57 1739.94 2467.42 1638.08 2667.11 1637.66 2668.06 1739.48"/><polygon class="cls-8" points="2222.65 1923.47 2023.1 1924.01 2021.53 1822.39 2221.27 1821.9 2222.65 1923.47"/><polygon class="cls-8" points="2446.32 1922.87 2246.97 1923.4 2245.62 1821.84 2445.15 1821.35 2446.32 1922.87"/><polygon class="cls-8" points="2669.76 1922.27 2470.61 1922.8 2469.48 1821.29 2668.82 1820.8 2669.76 1922.27"/><polygon class="cls-8" points="2225.11 2105.8 2025.91 2106.42 2024.35 2005.16 2223.74 2004.59 2225.11 2105.8"/><polygon class="cls-8" points="2448.4 2105.11 2249.39 2105.73 2248.05 2004.52 2447.24 2003.94 2448.4 2105.11"/><polygon class="cls-8" points="2671.46 2104.42 2472.65 2105.04 2471.52 2003.87 2670.52 2003.3 2671.46 2104.42"/><polygon class="cls-8" points="2227.57 2287.51 2028.72 2288.21 2027.16 2187.29 2226.21 2186.64 2227.57 2287.51"/><polygon class="cls-8" points="2450.47 2286.73 2251.81 2287.43 2250.47 2186.56 2449.32 2185.91 2450.47 2286.73"/><polygon class="cls-8" points="2673.15 2285.95 2474.69 2286.65 2473.56 2185.83 2672.21 2185.18 2673.15 2285.95"/></g><path class="cls-9" d="M630.62,1408.61c20.37-42.44,34.94-86.87,38.34-135.24,8.56-121.89-62.29-234.13-114.35-339.07-47.84-96.46-83.39-240.17,78-227.39,128.61,10.19,279.8,138.36,297.05,272,20.42,158.18-56.59,357.64,34.71,501.32,127.72,201,219.85,154.94,219.85,494.14,0,144.93-80.28,224.88-172.24,268.91a384.82,384.82,0,0,1-433.83-70.49c-102.16-98.86-162.9-241-142.35-383.68C456.57,1645,569.61,1535.71,630.62,1408.61Z"/><path class="cls-3" d="M738.52,2499.73a5.24,5.24,0,0,1-1.23-.15,5.07,5.07,0,0,1-3.69-6.15C914.08,1773,872.68,1344,806.17,1110.89,734.22,858.76,618.27,775.6,617.1,774.79a5.07,5.07,0,0,1,5.79-8.33c4.85,3.36,119.56,85.3,192.65,340.29,42.77,149.23,62.07,327.07,57.36,528.59C867,1887,823.45,2176.5,743.44,2495.89A5.07,5.07,0,0,1,738.52,2499.73Z"/><path class="cls-3" d="M502.47,1051a53.91,53.91,0,0,1,20.32-1.38c40.23,4.63,56.76,47.06,68.58,80.23,10.12,28.41,22,62.89,16.07,93.66-6.46,33.27-41.8,60.42-67.44,26.63-29.14-38.4-72.87-97.35-73.14-148.24C466.73,1076.64,480.93,1056.87,502.47,1051Z"/><path class="cls-3" d="M105.21,1832.84c-16.45-108.41,23-232.87,42.61-347.51,10.4-60.61,15.21-120.77,5.47-181.83-9.68-60.72-38.2-126.38-11.9-186.87,53-121.87,179-66.41,251.18,25.33,83.75,106.47,106.64,280.43,138.46,414.39,19.17,80.76,48.06,163.59,58.18,245.89,16.76,136.33-14.07,231-79.28,294.89a197.37,197.37,0,0,1-234.34,31.41C206.47,2090,131.76,2007.73,105.21,1832.84Z"/><path class="cls-3" d="M393.46,2336.74a5,5,0,0,1-.85-.07,5.07,5.07,0,0,1-4.16-5.84c.28-1.64,27.56-166.36,28.26-393.79.65-209.74-21.83-517.24-132.58-791.08a5.08,5.08,0,0,1,9.41-3.81c111.39,275.43,134,584.42,133.32,795.12-.72,228.22-28.13,393.6-28.4,395.24A5.08,5.08,0,0,1,393.46,2336.74Z"/><path class="cls-10" d="M2678,2136.61v137.51c0,25.15,6.39,45.58,31.92,46.21V2090.39C2684.41,2091,2678,2111.45,2678,2136.61Z"/><path class="cls-11" d="M236.3,1956.5h78.16c45.37,0,88.89-16.45,121-48.54L695.9,1645.11c32.08-32.08,75.6-52.49,121-52.49h976.82c60.43,0,116.38,35.05,147.18,87l118.25,201.13c30.14,50.86,84.41,83.35,143.51,84.62l362.29,8.29c93,2,161,78.39,161,171.44v301.59c0,24.82-7.23,49.21-32.05,49.21H110.15c-24.82,0-46.31-24.39-46.31-49.21v-316C63.84,2036.24,141.81,1956.5,236.3,1956.5Z"/><path class="cls-12" d="M2738.93,2326.76c24.82,0,41.24,27.21,41.24,52v95c0,24.82-16.42,41.32-41.24,41.32H2279V2326.76Z"/><path class="cls-13" d="M47,2326.76c-24.82,0-47,27.21-47,52v95c0,24.82,22.21,41.32,47,41.32H510.71V2326.76Z"/><path class="cls-14" d="M1101.46,1506.65c5.8-18.84,23.24-32.13,43-32.13h298.77c19.73,0,37.14,13.27,43,32.13,8.78,28.51,17.57,66.82,26.35,86H1075.11C1083.89,1573.47,1092.67,1535.16,1101.46,1506.65Z"/><path class="cls-15" d="M1306.52,1675.61H1779.7a45,45,0,0,1,38.82,22.29l140.86,241.48a11.79,11.79,0,0,1,0,11.18c-1.87,3.25-5.33,5.94-9.09,5.94H1306.52c-5.78,0-7.41-6-7.41-11.84V1686.08C1299.11,1680.3,1300.74,1675.61,1306.52,1675.61Z"/><path class="cls-16" d="M556.14,1946.62l258.29-258.29a43.44,43.44,0,0,1,30.72-12.72H1195.4c5.79,0,14.34,4.69,14.34,10.47V1944.7c0,5.77-6.6,10.45-12.37,10.47l-635.8,2.17a7,7,0,0,1-6.3-3.87C554.29,1951.12,554.35,1948.42,556.14,1946.62Z"/><path class="cls-17" d="M1485.65,2158.34h-36.9v-19.79h97.83v19.79H1509.3V2268.1h-23.65Z"/><path class="cls-18" d="M1573.69,2231.38l-11.15,36.72h-24.41l41.52-129.55h30.18l42.09,129.55h-25.37l-11.73-36.72Zm37.1-17.87-10.19-31.91c-2.5-7.88-4.62-16.72-6.54-24.22h-.38c-1.92,7.5-3.85,16.53-6.15,24.22l-10,31.91Z"/><path class="cls-19" d="M1735.54,2268.1l-14-25.76c-5.58-10-9.23-16.91-12.88-24.41h-.58c-3.08,7.5-6.54,14.42-11.72,24.41l-12.88,25.76h-27.11l38.44-65.55-36.9-64H1685l14,26.71c4.22,8.08,7.3,14.42,10.76,21.72h.38c3.46-8.07,6.16-13.84,10.19-21.72l13.84-26.71h27.1l-37.87,63.23,39.41,66.32Z"/><path class="cls-20" d="M1804,2138.55V2268.1h-23.64V2138.55Z"/><rect class="cls-21" x="1305.5" y="1997.99" width="146.83" height="28.73" rx="13.97"/><rect class="cls-22" x="609.66" y="1997.99" width="146.83" height="28.73" rx="13.97"/><rect class="cls-23" x="762.87" y="2460.82" width="1299.11" height="57.45" rx="26.28"/><circle class="cls-24" cx="2121.11" cy="2491.65" r="205.14" transform="translate(-1140.61 2229.64) rotate(-45)"/><circle class="cls-25" cx="2121.11" cy="2491.65" r="152.54" transform="translate(-204.72 189.93) rotate(-4.89)"/><circle class="cls-26" cx="628.78" cy="2491.65" r="205.14" transform="translate(-1577.7 1174.4) rotate(-45)"/><circle class="cls-27" cx="628.78" cy="2491.65" r="152.54" transform="translate(-1577.7 1174.4) rotate(-45)"/><rect class="cls-28" x="1244.85" y="1991.61" width="12.77" height="434.1"/><path class="cls-29" d="M105.79,2109.71c29.88,0,47.42,22.94,47.42,52.82v103.7c0,29.88-17.54,54.15-47.42,54.15H63.84V2109.71Z"/><rect class="cls-30" x="1998.14" y="1934.16" width="41.49" height="63.84" rx="16.91"/><rect class="cls-31" x="1838.55" y="1927.77" width="201.09" height="89.37" rx="43.34"/><path class="cls-28" d="M642.23,2264.73a6.38,6.38,0,0,1-5.18-2.65l-81.26-112.59c-24.94-33.57-38.7-71.88-38.7-107.82V1998a6.39,6.39,0,0,1,12.77,0v43.68c0,33.21,12.87,68.83,36.23,100.28l81.31,112.66a6.38,6.38,0,0,1-5.17,10.12Z"/><path class="cls-32" d="M1816.21,2304.42h-383a6.39,6.39,0,0,1,0-12.77h383a6.39,6.39,0,0,1,0,12.77Z"/><path class="cls-33" d="M1816.21,2116.1h-383a6.39,6.39,0,0,1,0-12.77h383a6.39,6.39,0,0,1,0,12.77Z"/><path class="cls-34" d="M2678,2136.61v137.51c0,25.15,13.24,46.26,38.22,46.26h3.38c25.52,0,47.78-20.75,47.78-46.26V2136.61c0-25.52-22.26-39.67-47.78-39.67h-3.38C2691.26,2096.94,2678,2111.45,2678,2136.61Z"/><path class="cls-3" d="M678.63,171.37l-56.41-31.93a5.27,5.27,0,0,0-3.83-.52l-71,17.53a5.23,5.23,0,0,0-2.09,9.09l44.45,36.86Z"/><path class="cls-9" d="M204.25,253.84S866.87,107.69,893.25,115s74,33.07,87.75,32.57,62.06,6,50.94,40.77S471.57,350,406.27,330.4s-230.1-54.93-230.1-54.93S160.23,252.68,204.25,253.84Z"/><path class="cls-9" d="M396.15,214,298,164.4a36.82,36.82,0,0,1-14.89-13.78L241.53,82a14.48,14.48,0,0,0-15.93-6.54c-19.73,5-60.65,15.91-60.67,20.6,0,6.18,26.27,160.4,26.27,160.4Z"/><path class="cls-3" d="M211.36,275.8l-6.7,33a18.09,18.09,0,0,0,4,15.46,18.33,18.33,0,0,0,14.8,6.33l33.93-1.23a18.32,18.32,0,0,0,13.75-6.64L329,251.4Z"/><path class="cls-9" d="M565.23,371.29s21.49,24.47,54.95,23.27,74.29-11.95,81.59-24.06,20.61-100.16-46.87-85.13S509.58,342.88,565.23,371.29Z"/><path class="cls-3" d="M523.89,282.35,681.4,248.58l-126.78,176a10.9,10.9,0,0,1-7.53,4.44L452.41,440.5a10.89,10.89,0,0,1-10.73-16.27Z"/><path class="cls-3" d="M693.13,373.22a3.46,3.46,0,0,0,1.2,0c2.11-.36,4.15-2.64,6.07-6.77,6.18-13.29,9.37-41.38-2.88-62.19h0a20.63,20.63,0,0,0-17.21-10.2c-5.86-.18-13.27,1.84-15.24,12.5-3.09,16.71,14.25,54.3,23.63,63.81C690.34,372.06,691.81,373,693.13,373.22Zm-10.5-76A18,18,0,0,1,695,305.74h0c11.6,19.69,8.5,47.14,2.76,59.5-1.67,3.58-3.16,5-3.94,5.14-.1,0-1,.09-3.09-2-9.75-9.89-25.56-46.49-22.83-61.26,1.3-7,5.32-10.34,12.3-10.13A17.57,17.57,0,0,1,682.63,297.2Z"/><polygon class="cls-3" points="170.13 132.7 186.6 132.11 205.83 236.69 188.66 241.36 170.13 132.7"/><rect class="cls-35" x="445.51" y="239.22" width="20.26" height="26.04" rx="9.82" transform="translate(-8.8 16.59) rotate(-2.07)"/><path class="cls-36" d="M482.89,245.16A9.81,9.81,0,0,1,492.35,235l.62,0a9.83,9.83,0,0,1,10.17,9.46l.23,6.41A9.81,9.81,0,0,1,493.91,261l-.62,0a9.82,9.82,0,0,1-10.17-9.45Z"/><path class="cls-37" d="M520.18,235.13A9.81,9.81,0,0,1,529.63,225l.63,0a9.81,9.81,0,0,1,10.16,9.46l.23,6.41A9.81,9.81,0,0,1,531.2,251l-.63,0a9.8,9.8,0,0,1-10.16-9.45Z"/><path class="cls-38" d="M554.67,228.1a9.83,9.83,0,0,1,9.46-10.17l.62,0a9.83,9.83,0,0,1,10.17,9.46l.23,6.41a9.83,9.83,0,0,1-9.46,10.16l-.62,0a9.82,9.82,0,0,1-10.17-9.46Z"/><path class="cls-39" d="M595,220.86a9.83,9.83,0,0,1,9.46-10.17l.62,0a9.83,9.83,0,0,1,10.17,9.46l.23,6.41A9.83,9.83,0,0,1,606,236.7l-.62,0a9.82,9.82,0,0,1-10.17-9.46Z"/><path class="cls-40" d="M632.34,213.72a9.81,9.81,0,0,1,9.46-10.16l.62,0A9.81,9.81,0,0,1,652.58,213l.24,6.41a9.81,9.81,0,0,1-9.46,10.16l-.63,0a9.82,9.82,0,0,1-10.16-9.45Z"/><path class="cls-41" d="M669.62,203.69a9.81,9.81,0,0,1,9.46-10.16l.63,0A9.83,9.83,0,0,1,689.87,203l.23,6.41a9.81,9.81,0,0,1-9.46,10.16l-.62,0a9.8,9.8,0,0,1-10.16-9.45Z"/><path class="cls-42" d="M704.22,199.55a9.81,9.81,0,0,1,9.46-10.16l.63,0a9.83,9.83,0,0,1,10.16,9.46l.23,6.41a9.81,9.81,0,0,1-9.46,10.16l-.62,0A9.82,9.82,0,0,1,704.45,206Z"/><path class="cls-43" d="M741.61,192.41a9.81,9.81,0,0,1,9.46-10.16l.62,0a9.82,9.82,0,0,1,10.17,9.45l.23,6.41a9.81,9.81,0,0,1-9.46,10.16l-.62,0a9.83,9.83,0,0,1-10.17-9.46Z"/><path class="cls-44" d="M778.9,182.38a9.8,9.8,0,0,1,9.45-10.16l.63,0a9.82,9.82,0,0,1,10.16,9.45l.23,6.41a9.82,9.82,0,0,1-9.46,10.17l-.62,0a9.81,9.81,0,0,1-10.16-9.46Z"/><rect class="cls-45" x="813.6" y="168.06" width="20.26" height="26.04" rx="9.82" transform="matrix(1, -0.04, 0.04, 1, -5.99, 29.81)"/><path class="cls-46" d="M940.58,133.93l-65.3,20.69a10.68,10.68,0,0,0-7.37,11.5c.76,6.07,1.93,12.92,3.26,12.29,2.37-1.12,104.83-31.1,104.83-31.1Z"/><circle class="cls-9" cx="2046.08" cy="2736.73" r="27.68"/><circle class="cls-47" cx="2046.08" cy="2736.73" r="19.75"/><circle class="cls-9" cx="1838.48" cy="2736.73" r="27.68"/><circle class="cls-48" cx="1838.48" cy="2736.73" r="19.75"/><rect class="cls-9" x="2029.11" y="2047.86" width="12.71" height="186.42"/><rect class="cls-9" x="1842.74" y="2047.86" width="12.71" height="186.42"/><path class="cls-49" d="M1816.58,2222.2H2068c35.88,0,63.25,27.78,63.25,65.45v380.48c0,37.66-27.37,66.49-63.25,66.49H1816.58c-35.87,0-69-28.83-69-66.49V2287.65C1747.54,2250,1780.71,2222.2,1816.58,2222.2Z"/><path class="cls-50" d="M1768.14,2304.82c0-34.28,27-56.87,59.69-56.87h228.79c32.64,0,54,22.59,54,56.87V2651c0,34.28-21.36,60.49-54,60.49H1827.83c-32.64,0-59.69-26.21-59.69-60.49Z"/><g class="cls-51"><rect class="cls-9" x="2038.52" y="2291.73" width="25.75" height="373.37" rx="11.3"/></g><g class="cls-51"><rect class="cls-9" x="1966.42" y="2291.73" width="25.75" height="373.37" rx="11.3"/></g><g class="cls-51"><rect class="cls-9" x="1891.74" y="2291.73" width="25.75" height="373.37" rx="11.3"/></g><g class="cls-51"><rect class="cls-9" x="1814.49" y="2291.73" width="25.75" height="373.37" rx="11.3"/></g><path class="cls-52" d="M1876.52,1948.3h124.1c22.06,0,44.4,10.76,44.4,31.32V2048a4.06,4.06,0,0,1-4.06,4.06h-11A4.06,4.06,0,0,1,2026,2048v-68.42c0-6.53-11.83-12.26-25.33-12.26h-124.1c-17.92,0-17.92,9.23-17.92,12.26V2048a4.06,4.06,0,0,1-4.06,4.06H1843.6a4.06,4.06,0,0,1-4.06-4.06v-68.42C1839.54,1964.48,1849.25,1948.3,1876.52,1948.3Z"/><path class="cls-53" d="M2066.2,2725.29h3.71c30.37,0,55.07-26.15,55.07-58.3v-56.71a.79.79,0,0,0-1.58,0V2667c0,31.27-24,56.72-53.49,56.72h-3.71a.79.79,0,0,0,0,1.58Z"/><path class="cls-54" d="M2124.19,2596.6a.79.79,0,0,0,.79-.79V2563a.79.79,0,1,0-1.58,0v32.83A.79.79,0,0,0,2124.19,2596.6Z"/><path class="cls-55" d="M2220.26,1374.57c60.2,36.49,77.36,105.83,102,166.84,26.39,65.44,62.31,123.47,117.2,168.82,78,64.43,167.65,130.88,168.41,242.52.68,99.48-69.69,184.68-159,221.34-44.36,18.22-113.06,37.61-161.47,31.7-255-31.15-292.15-216.63-284.71-357S2127.79,1318.53,2220.26,1374.57Z"/><path class="cls-56" d="M1787.38,1447s194,166.27,361.5,158.39c0,0-3.74,95.43-24.05,112.47,0,0-239.95-100.56-336.3-239.1Z"/><path class="cls-57" d="M2192.9,1904.21c-23-148.31,70.47-223.89,70.47-223.89-50.82-57-149-88.82-149-88.82s-101,62.38-93.88,117.92c4.14,32.55,52.17,197.11,52.17,197.11S2126.49,1937.37,2192.9,1904.21Z"/><path class="cls-58" d="M2184.27,1500.13l18.15,127.69c1.82,11.27-8.12,8.67-19.13,5.69-18-4.87-41.08-13.82-47.85-28.68a13.56,13.56,0,0,1-1.06-4.84l-5.22-88a15.69,15.69,0,0,1,10.43-15.72l24-8.46A15.68,15.68,0,0,1,2184.27,1500.13Z"/><path class="cls-59" d="M2134.92,1393.26s-32,16.65-50.57,66.28,0,70.35,21.31,71.67,52.86-1.7,83.74-35.28S2176.59,1373.22,2134.92,1393.26Z"/><path class="cls-60" d="M2164.9,1472.22s19.29-72-42.79-67.77l-13.76,11.38s-25.9-36.94,10-58.47,77.8-9.58,114.13,28.92c39.34,41.66,56.31,95.35,31.82,121.56s-78.11,4-78.11,4-6-14.83,2-42c3.8-12.89-19.18,4.06-19.18,4.06Z"/><path class="cls-61" d="M2165.17,1484.85s9.7-37,27.7-24.06-11,34.39-22.44,41.49Z"/><path class="cls-62" d="M1804.36,1493.26c15.4,4,17.06-21.2,16.58-37.22-.54-17.66-6-37.9-17.16-52-18-22.64-6.26,27-4.78,26.23-2.61,1.33-5.35-1.49-6.87-4-6.34-10.39-11.58-21.47-18.72-31.33-5.54-7.64-16.39-20.61-26.72-21.51-11.26-1-12.55,17.66-12.18,26.6.43,10.31,3.65,20.34,7.93,29.73C1753.38,1453.85,1777.27,1486.19,1804.36,1493.26Z"/><path class="cls-3" d="M2482.45,2111a.84.84,0,0,1-.74-.44.85.85,0,0,1,.34-1.15c41.28-22.61,74.21-66.76,88.09-118.08,13.19-48.8,7.37-97.44-16.39-137a.85.85,0,0,1,.29-1.16.83.83,0,0,1,1.16.29c24,39.91,29.89,89,16.57,138.27-14,51.76-47.23,96.29-88.91,119.13A.86.86,0,0,1,2482.45,2111Z"/><path class="cls-3" d="M2483.45,1788.83a.86.86,0,0,1-.41-.1c-77.25-42.26-125.73-109.9-152.81-159.21-29.32-53.41-40.53-97.42-40.64-97.86a.83.83,0,0,1,.61-1,.81.81,0,0,1,1,.61c.11.44,11.29,44.28,40.52,97.51,27,49.09,75.24,116.44,152.11,158.48a.85.85,0,0,1,.34,1.15A.84.84,0,0,1,2483.45,1788.83Z"/><path class="cls-63" d="M2390.61,2744.65l1.58,36.61a15,15,0,0,0,12.12,14.14c11.53,2.23,30.08,5,48.49,4.54a12.87,12.87,0,0,0,12.07-15.8c-3.36-14.35-9.86-36-20.64-49.29l-40.23-3.14A12.44,12.44,0,0,0,2390.61,2744.65Z"/><path class="cls-64" d="M2108.59,2295.18l-9.9,39.42s4.78,232.13,1.64,324.59a72.35,72.35,0,0,1-13.89,40.21l-44.55,61.13L2147,2709.06l3-12.11-14.69-23.9L2177,2416.67a79.34,79.34,0,0,0-5.6-44.5l-17.74-40.67Z"/><path class="cls-65" d="M2034.55,2769.32l32.07,2.5a19.37,19.37,0,0,0,15.91-6.32c11-12.21,33.71-35.94,43.66-35.83,13.41.15,8,47.42,8,47.42l7.47.58,14.06-58.17a35,35,0,0,0-15.45-37.87h0s-4.81,22.3-22.12,31-70.82,40.43-70.82,40.43a46,46,0,0,0-13.06-.67C2024,2753.42,2024.26,2768.52,2034.55,2769.32Z"/><path class="cls-66" d="M2244.77,2324.89S2358.3,2588,2375,2647.36s20.35,108.07,20.27,112.65c-.11,7.15,8.22,14.68,32.64,16.58,12.6,1,19.17-3.59,22.57-8.24a14.27,14.27,0,0,0,1.62-13.75c-6.49-16.2-27.07-67.95-34.36-91.26-8.71-27.84-22.44-152-31.88-195.5s-20.26-90.78-72.51-137.61C2313.33,2330.23,2278.1,2289.9,2244.77,2324.89Z"/><path class="cls-9" d="M2263.47,1982.25c-10.7-43.23-70.57-78-70.57-78-66.41,33.16-120.29,2.32-120.29,2.32s-16.28,47-11.1,92.21,37.18,335.86,37.18,335.86c84.24,24,218.6-.51,218.6-.51C2270.31,2233,2274.18,2025.48,2263.47,1982.25Z"/><path class="cls-67" d="M2217.6,1738.08c4.69,6.22,75.81,90.83,96.17,185.24s13.52,157.45,13.52,157.45-20.69,15.43-13.25,26.38,5.47,18.39,15,20.52,21.3,5.11,19.86-13.66,21-22.55,17.25-33.89,21.65-316-101-398.64c-.58-.39-1.16-.78-1.75-1.16C2211.51,1699.06,2210.05,1728.08,2217.6,1738.08Z"/></g></g></g></svg>