<svg xmlns="http://www.w3.org/2000/svg" viewBox="0 0 693.25 479.8"><defs><style>.cls-1{fill:#802425;}.cls-2{fill:#e84242;}.cls-3{fill:#343434;}.cls-4{fill:#efefef;}</style></defs><g id="Ebene_2" data-name="Ebene 2"><g id="Taxi_Logo" data-name="Taxi Logo"><polygon class="cls-1" points="436.58 419.52 386.37 453.27 693.25 434.21 436.58 419.52"/><polygon class="cls-1" points="256.66 419.52 306.87 453.27 0 434.21 256.66 419.52"/><polygon class="cls-2" points="655.68 175.36 38.1 175.36 92.6 340.02 140.15 340.02 346.89 479.8 554.87 340.02 603.9 340.02 655.68 175.36"/><polygon class="cls-3" points="639.39 183.39 54.38 183.39 104.72 332.42 149.76 332.42 346.89 471.77 542.62 332.42 589.06 332.42 639.39 183.39"/><rect class="cls-2" x="0.53" y="348.26" width="692.71" height="85.95" transform="translate(693.78 782.48) rotate(180)"/><path class="cls-2" d="M96.72,90.1a21.68,21.68,0,0,1,20.92-15l41.91.55,59.58-42.92a43.14,43.14,0,0,1,25.23-8.15h46.2V17.1A17.15,17.15,0,0,1,307.66,0h10.26A17.15,17.15,0,0,1,335,17.1v7.43H374.9a43.19,43.19,0,0,1,20.71,5.3l74.8,40.92A60.18,60.18,0,0,0,480.19,75L582.45,109.1a37,37,0,0,1,25.29,35.09v32H88.66v-61Z"/><circle class="cls-3" cx="514.61" cy="175.36" r="41.05" transform="translate(-26.52 122.92) rotate(-13.28)"/><circle class="cls-3" cx="181.95" cy="175.36" r="41.05" transform="translate(-35.42 46.49) rotate(-13.28)"/><rect class="cls-4" x="398.2" y="100.11" width="34.21" height="34.21" transform="translate(830.6 234.42) rotate(180)"/><rect class="cls-4" x="329.79" y="100.11" width="34.21" height="34.21" transform="translate(693.78 234.42) rotate(180)"/><rect class="cls-4" x="363.99" y="134.32" width="34.21" height="34.21" transform="translate(762.19 302.84) rotate(180)"/><rect class="cls-4" x="295.58" y="134.32" width="34.21" height="34.21" transform="translate(625.37 302.84) rotate(180)"/><rect class="cls-4" x="261.37" y="100.11" width="34.21" height="34.21" transform="translate(556.95 234.42) rotate(180)"/><g id="igoumenitsa"><path class="cls-4" d="M77.3,411.56c0,3.45,2.38,5.24,7.15,5.4a.27.27,0,0,1,.31.3v.92a.28.28,0,0,1-.31.31H60.13a.28.28,0,0,1-.31-.31v-.92c0-.2.64-.3,1.91-.3a13.6,13.6,0,0,0,4.36-.84q3.75-1.23,3.75-4.13V393.74a.76.76,0,0,0-.11-.49.74.74,0,0,0-.5-.12H39.09a.49.49,0,0,0-.61.61v18.63q0,4.59,6.77,4.59a.27.27,0,0,1,.31.3v.92c0,.2-.09.31-.27.31H24.18a.28.28,0,0,1-.31-.31v-.92c0-.2.26-.3.77-.3,4.26,0,6.39-1.83,6.39-5.47V370.68c0-3-1.78-4.56-5.32-4.74-.54,0-.8-.14-.8-.34v-.73c0-.2.09-.3.26-.3h19.2c.21,0,.31.1.31.3v.73c0,.15-.24.23-.73.23-3.65,0-5.47,1.79-5.47,5.39v17.67a.49.49,0,0,0,.61.61H69.23a.74.74,0,0,0,.5-.12.76.76,0,0,0,.11-.49V370.61a4,4,0,0,1-.09-.63c0-.2-.06-.49-.14-.9-.18-.87-1.08-1.58-2.71-2.12a23,23,0,0,0-5.55-1.06.27.27,0,0,1-.3-.3v-.73c0-.2.08-.3.26-.3H83.38a.27.27,0,0,1,.3.3v.73c0,.15-.24.23-.72.23-3.78,0-5.66,1.79-5.66,5.39Z"/><path class="cls-4" d="M93.51,364.87c0-.2.1-.3.31-.3h36.06a2.17,2.17,0,0,1,.69.21c.15.08.23.31.23.66v9.26c0,.31-.05.5-.14.57a.73.73,0,0,1-.48.12h-.45a12,12,0,0,1-.52-2.09,7.31,7.31,0,0,0-1.36-3.15,5.53,5.53,0,0,0-3.56-1.88c-.53,0-1.18-.07-2-.07H107.85a.67.67,0,0,0-.76.76v42.91c0,1.73,1,3,3.11,3.84a15.75,15.75,0,0,0,3.94,1.25c.55,0,.82.1.82.3v.92a.27.27,0,0,1-.3.31H93.78a.28.28,0,0,1-.31-.31v-.92c0-.2.22-.3.65-.3a5.82,5.82,0,0,0,2-.62,6.85,6.85,0,0,0,2.43-1.81,4.3,4.3,0,0,0,1-2.93V370.3A3.66,3.66,0,0,0,97,366.75a7.6,7.6,0,0,0-3-.66h-.15c-.21,0-.31-.1-.31-.3Z"/><path class="cls-4" d="M178.37,418.37a25.24,25.24,0,0,1-7,1.15,35.49,35.49,0,0,1-12-2,29.28,29.28,0,0,1-12.55-8.37q-6-7.08-6-17.94a26.44,26.44,0,0,1,4-14.28,28.37,28.37,0,0,1,11.11-10.19A32.15,32.15,0,0,1,171.2,363a29.33,29.33,0,0,1,14.62,3.63,28.2,28.2,0,0,1,10.37,10,25.82,25.82,0,0,1,3.9,13.75,27.6,27.6,0,0,1-3.87,14.07,30.36,30.36,0,0,1-10.59,10.81A30,30,0,0,1,178.37,418.37ZM148.84,390a30.55,30.55,0,0,0,2.81,12.6,25.76,25.76,0,0,0,8,10.19,19.63,19.63,0,0,0,12.13,3.94q9.78,0,15.25-7.5,4.93-6.76,4.94-17.28a28.31,28.31,0,0,0-6-18.13,22.62,22.62,0,0,0-7.21-5.95,18.38,18.38,0,0,0-8.61-2.23,22.43,22.43,0,0,0-7.11.95,18.64,18.64,0,0,0-5,2.62,19.4,19.4,0,0,0-4,4,24.22,24.22,0,0,0-2.86,5A30,30,0,0,0,148.84,390Z"/><path class="cls-4" d="M227.54,418.49c-.86,0-1.3-.26-1.3-.77v-.38c0-.41.38-.66,1.13-.75l1.47-.17a7,7,0,0,0,4.09-1.43,4.47,4.47,0,0,0,1.19-3.39V398.94a1.62,1.62,0,0,0-.12-.57l-15.64-24.93c-2.44-3.9-4.87-6.15-7.26-6.73l-.69-.16c-.33-.07-1.07-.2-2.22-.38-.41-.08-.61-.36-.61-.86s.19-.74.57-.74H230c.43,0,.65.25.65.76s-.22.76-.65.76a20.78,20.78,0,0,0-3.41.54,2.5,2.5,0,0,0-1.91,2.45,3,3,0,0,0,.46,1.64l12.93,20.65c.28.41.45.67.51.79a.46.46,0,0,0,.42.17q.33,0,1-1.11l10.32-17.55c.31-.62.66-1.27,1-2a4.3,4.3,0,0,0,.6-2.16q0-2.79-3.83-3.29c-.92-.13-1.41-.27-1.49-.42a1.28,1.28,0,0,1-.11-.58c0-.46.21-.68.65-.68H265.1a.47.47,0,0,1,.53.53,1.16,1.16,0,0,1-.17.73,1,1,0,0,1-.46.28,3.62,3.62,0,0,1-.63.16c-.23,0-.73.14-1.49.32-1.79.44-3.72,1.85-5.81,4.25-.23.28-.36.44-.39.49l-15.1,26V411.6a4.45,4.45,0,0,0,1.16,3.25,6.66,6.66,0,0,0,3.94,1.55c1.85.24,2.77.54,2.77.9v.42c0,.51-.43.77-1.3.77Z"/><path class="cls-4" d="M288.12,417c.15,0,.22.1.22.3v.92c0,.2-.07.31-.22.31H270.26a.28.28,0,0,1-.31-.31v-.92c0-.2.1-.3.31-.3q6.27,0,6.8-5.4.15-1.56.33-5.22t1-15.71q.84-12.08.84-19.53v-1.41a3,3,0,0,0-1.74-2.56,6,6,0,0,0-2.54-1c-.54,0-.8-.1-.8-.3v-.92a.27.27,0,0,1,.3-.3h11.05a1.66,1.66,0,0,1,1.19.84l17.94,40,.3.46c.08.13.27.18.58.17s.53-.24.68-.67L324,366.09c.53-1,1-1.52,1.45-1.52h11.13a.27.27,0,0,1,.31.3v.92c0,.2-.07.3-.2.3a7.22,7.22,0,0,0-2.83.77c-1.7.76-2.56,1.9-2.56,3.4l2.3,42.26a3.84,3.84,0,0,0,2.06,3.21,9.79,9.79,0,0,0,5.2,1.23c.21,0,.31.1.31.3v.92a.28.28,0,0,1-.31.31H319.09a.27.27,0,0,1-.3-.31v-.92a.27.27,0,0,1,.3-.3c4.56,0,6.85-1.11,6.85-3.33l-2-36.52c0-.26-.1-.38-.21-.38s-.21.11-.29.34l-19,41.15c-.11.18-.4.27-.88.27s-.77-.11-.84-.31L284,377c-.16-.36-.3-.54-.44-.54s-.21.28-.21.84q0,1.75-.92,16.6t-.92,18.51v1.57q.46,2.18,4.32,2.83A14.59,14.59,0,0,0,288.12,417Z"/><path class="cls-4" d="M346.12,418.18v-1.07a.28.28,0,0,1,.31-.31h.84c1.07-.07,2.17-.12,3.29-.13a12.06,12.06,0,0,0,3.06-.4q3.13-.91,3.14-4.59V371.37q0-3.78-4.48-4.82c-.84-.17-1.69-.33-2.56-.46h-.8c-.21,0-.31-.1-.31-.3v-.92c0-.2.1-.3.31-.3h36.37a1.14,1.14,0,0,1,1.37,1.33l.69,11.09q0,.39-.57.39a1,1,0,0,1-.84-.35,11.48,11.48,0,0,1-.6-2.79,10.88,10.88,0,0,0-1.32-4,4.53,4.53,0,0,0-3.36-2h-16a.44.44,0,0,0-.5.5v19.77a.34.34,0,0,0,.39.38h13.23q5.12,0,5.12-6c0-.2.1-.3.31-.3h.92a.27.27,0,0,1,.3.3v16.37c0,.21-.1.31-.3.31h-.92a.27.27,0,0,1-.31-.31c0-3.77-1.09-5.95-3.29-6.54a8.14,8.14,0,0,0-2-.23H364.6a.34.34,0,0,0-.39.38v18.63c0,1.91.88,3,2.64,3.25a10.44,10.44,0,0,0,1.61.11h12.73a6.84,6.84,0,0,0,6.12-3.48,13,13,0,0,0,1.91-5.69,1.06,1.06,0,0,1,1.15-1.08c.31,0,.46.17.46.5L389.57,418q-.22.54-.54.54h-42.6A.28.28,0,0,1,346.12,418.18Z"/><path class="cls-4" d="M399.93,418.49a.28.28,0,0,1-.31-.31v-.92q0-.3.39-.3h.87a7.1,7.1,0,0,0,2.87-.39c1.89-.91,2.83-3.44,2.83-7.57V369.27c0-1.71-1.65-2.73-5-3.06-.74-.08-1.26-.12-1.55-.12s-.44-.1-.44-.3v-.92c0-.2.1-.3.31-.3h14l36.3,40.11c.12.13.21.22.26.29a.33.33,0,0,0,.25.09c.12,0,.18-.11.18-.34V378.37c0-5.07-.43-8.39-1.27-9.94s-2.53-2.34-5.08-2.34h-1.95c-.21,0-.31-.1-.31-.3v-.92c0-.2.1-.3.31-.3h19.88c.21,0,.31.1.31.3v.92c0,.2-.38.3-1.13.3A9.93,9.93,0,0,0,458,367.4q-2.58,1.29-2.58,3.21v46.77a2.37,2.37,0,0,1-.23,1.2c-.15.24-.52.37-1.09.37a2,2,0,0,1-1.28-.35,10.07,10.07,0,0,1-1-1L412.36,373.9a1.07,1.07,0,0,0-.69-.39c-.13,0-.19.13-.19.39v38.16q0,3.48,5.5,4.59a12.5,12.5,0,0,0,2.34.31c.53,0,.8.1.8.3v.92a.28.28,0,0,1-.31.31Z"/><path class="cls-4" d="M476.91,370.68q0-4.59-5.28-4.59-.84,0-.84-.3v-.92a.27.27,0,0,1,.3-.3h19.16c.21,0,.31.1.31.3v.92q0,.3-1.68.3a5,5,0,0,0-3.1,1.08c-.94.71-1.42,2.18-1.42,4.39v40.81c0,3.06,1.78,4.59,5.32,4.59.54,0,.8.1.8.3v.92a.27.27,0,0,1-.3.31H471a.28.28,0,0,1-.31-.31v-.92q0-.3,1.68-.3a5,5,0,0,0,3.1-1.07c.95-.72,1.42-2.18,1.42-4.4Z"/><path class="cls-4" d="M512.39,417.26c0-.2.12-.3.35-.3h1.07a10.24,10.24,0,0,0,6-1.61,4.57,4.57,0,0,0,2.28-3.75V369.27q0-.81-.33-.9a7.89,7.89,0,0,0-.78-.17H506.31q-3.56.76-4.66,5.47c-.41,1.68-.65,2.76-.73,3.23s-.22.71-.42.71h-.69c-.15,0-.23-.06-.23-.16v-1.26L501,364.26c.15-.79.4-1.19.76-1.19a1.64,1.64,0,0,1,1.15.75,2.9,2.9,0,0,0,2.33.75h41.23c1.09,0,1.76-.13,2-.39s.45-.5.65-.74a1,1,0,0,1,.79-.37.57.57,0,0,1,.61.39,4.93,4.93,0,0,1,.21.8l1.42,11.93v1.26c0,.1-.08.16-.23.16h-.69c-.21,0-.35-.2-.42-.58A20.88,20.88,0,0,0,549,371a5.12,5.12,0,0,0-3.63-2.77H530.67a7.3,7.3,0,0,0-.78.17q-.33.09-.33.9V411.6a4.57,4.57,0,0,0,2.28,3.75,10.24,10.24,0,0,0,6,1.61H539a.27.27,0,0,1,.31.3v.92a.28.28,0,0,1-.31.31H512.7a.28.28,0,0,1-.31-.31Z"/><path class="cls-4" d="M563.37,418.49c-.46,0-.69-.44-.69-1.3a2.89,2.89,0,0,1,.61-2l18.28-23.64-18.39-23.82a2.38,2.38,0,0,1-.5-1.36,3.19,3.19,0,0,1,.23-1.22c.15-.4.28-.59.38-.59h41.53c.59,0,.88.43.88,1.3l.57,11.74c-.1.15-.33.22-.7.22s-.61-.05-.71-.17a10,10,0,0,1-.56-2.2,33.47,33.47,0,0,0-.89-3.61,4.67,4.67,0,0,0-2.34-2.62,7.52,7.52,0,0,0-3.74-1H574.11c-.51,0-.76.09-.76.28a.73.73,0,0,0,.15.48l16,20.5-16,20.65c-.08.13-.22.35-.44.65a1.4,1.4,0,0,0-.32.77c0,.68.58,1,1.76,1h22.79A5.94,5.94,0,0,0,601,411a9.11,9.11,0,0,0,2.71-3.59,18.43,18.43,0,0,0,1.07-5.26.69.69,0,0,1,.77-.57c.43,0,.65.15.65.45v1.8l-.81,12.43c0,.28,0,.55,0,.8,0,1-.35,1.46-1.07,1.46Z"/><path class="cls-4" d="M634.72,418.18a.27.27,0,0,1-.3.31H614.88a.28.28,0,0,1-.31-.31v-.92c0-.2.16-.3.5-.3q5.23-.24,7.07-5.59l15.6-45.16a.38.38,0,0,0,0-.19l-.42-1.26c0-.13,0-.19.15-.19h7.65a1.27,1.27,0,0,0,.21.07.35.35,0,0,1,.21.23l16.18,45.39a19.39,19.39,0,0,1,.86,1.88,9.9,9.9,0,0,0,.75,1.53,5.83,5.83,0,0,0,3,2.41,7.34,7.34,0,0,0,3.21.88c.2,0,.31.11.31.34v.88a.28.28,0,0,1-.31.31H646.2a.28.28,0,0,1-.31-.31v-.92c0-.2.47-.33,1.41-.38s1.73-.1,2.34-.15c3.54-.39,5.31-1.58,5.31-3.6a2.21,2.21,0,0,0-.07-.53l-5.78-16.29L649,396a1.66,1.66,0,0,0-1.61-1.3H633.77a2,2,0,0,0-1.8,1.26,1.54,1.54,0,0,0-.12.31L626.12,413v.34a2.27,2.27,0,0,0,1,1.8,10,10,0,0,0,6.27,1.8h1a.27.27,0,0,1,.3.3ZM646,390.42c.46,0,.69-.19.69-.58a2,2,0,0,0-.15-.69l-5.7-15.67c-.26-.69-.45-1-.57-1s-.34.36-.62,1.07l-5.35,15.64a2.27,2.27,0,0,0-.15.83c0,.29.19.44.57.44Z"/></g><g id="taxi"><path class="cls-4" d="M213.83,303c0-.31.18-.47.53-.47H216q5.75,0,9.23-2.46c2.32-1.64,3.49-3.55,3.49-5.74V229.43c0-.82-.17-1.28-.5-1.37a10,10,0,0,0-1.2-.27H204.51q-5.44,1.17-7.15,8.38-.93,3.87-1.11,5c-.12.73-.33,1.09-.64,1.09h-1.06c-.23,0-.35-.08-.35-.24V240l2.17-18.29c.23-1.21.62-1.81,1.17-1.81a2.51,2.51,0,0,1,1.76,1.14q.93,1.14,3.57,1.14h63.18c1.68,0,2.69-.19,3.05-.58s.68-.77,1-1.15a1.5,1.5,0,0,1,1.2-.55.88.88,0,0,1,.94.58,7.41,7.41,0,0,1,.32,1.23L274.72,240V242c0,.16-.11.24-.35.24h-1.05c-.32,0-.53-.3-.65-.88A31.66,31.66,0,0,0,270,232a7.82,7.82,0,0,0-5.57-4.25H241.84a10.45,10.45,0,0,0-1.2.27c-.33.09-.49.55-.49,1.37v64.88q0,3.29,3.48,5.74c2.33,1.64,5.4,2.46,9.23,2.46h1.7a.42.42,0,0,1,.47.47v1.41a.42.42,0,0,1-.47.47H214.3a.42.42,0,0,1-.47-.47Z"/><path class="cls-4" d="M307.25,304.39a.42.42,0,0,1-.47.47H276.84a.41.41,0,0,1-.47-.47V303c0-.31.25-.47.76-.47q8-.35,10.84-8.55l23.91-69.22a.6.6,0,0,0,.06-.29l-.64-1.93c0-.2.07-.3.23-.3h11.72l.32.12a.55.55,0,0,1,.33.35l24.79,69.57a29.49,29.49,0,0,1,1.31,2.87,15,15,0,0,0,1.15,2.34,9,9,0,0,0,4.63,3.7,11.2,11.2,0,0,0,4.92,1.34c.31,0,.47.18.47.53v1.35a.42.42,0,0,1-.47.47H324.83a.42.42,0,0,1-.47-.47V303c0-.31.73-.5,2.17-.58s2.64-.16,3.58-.24q8.14-.87,8.14-5.51a4,4,0,0,0-.11-.82l-8.85-25-.24-.53a2.53,2.53,0,0,0-2.46-2h-20.8a3,3,0,0,0-2.76,1.93,2.06,2.06,0,0,0-.17.47l-8.79,25.73V297a3.48,3.48,0,0,0,1.58,2.76q3.57,2.76,9.61,2.75h1.52a.42.42,0,0,1,.47.47Zm17.35-42.55c.7,0,1-.29,1-.88a3,3,0,0,0-.23-1l-8.73-24c-.39-1.06-.69-1.58-.88-1.58s-.51.54-.94,1.64l-8.21,24a3.48,3.48,0,0,0-.23,1.26c0,.45.29.67.88.67Z"/><path class="cls-4" d="M382.73,231.31q-5.62,1.23-7.15,6.39a31.71,31.71,0,0,0-1,4,5.42,5.42,0,0,1-.32,1.49.49.49,0,0,1-.41.15h-1.05c-.24,0-.36-.08-.36-.23v-1.94l2.17-19.46c.24-1.21.63-1.81,1.17-1.81a2.49,2.49,0,0,1,1.76,1.14c.63.76,1.82,1.14,3.58,1.14h63.17c1.68,0,2.7-.19,3.05-.58s.69-.77,1-1.15a1.49,1.49,0,0,1,1.2-.55.88.88,0,0,1,.94.58,10.09,10.09,0,0,1,.32,1.23l2.17,19.46v1.94c0,.15-.12.23-.35.23h-1.06c-.31,0-.52-.29-.61-.88s-.34-1.72-.71-3.4a13.07,13.07,0,0,0-2.11-4.74q-1.55-2.24-5.48-3.05Zm59.89,64.46a8.93,8.93,0,0,0,7.15-6.38,33.43,33.43,0,0,0,1-4,6.84,6.84,0,0,1,.35-1.58.5.5,0,0,1,.41-.15h1.06c.23,0,.35.08.35.24v1.93l-2.17,19.46c-.24,1.21-.6,1.81-1.08,1.81a1.74,1.74,0,0,1-1-.23,11.14,11.14,0,0,1-1.11-1.2c-.47-.57-1.57-.85-3.29-.85H381.09c-1.72,0-2.75.2-3.08.61s-.65.79-1,1.15a1.53,1.53,0,0,1-1.2.52.88.88,0,0,1-.94-.58,9.22,9.22,0,0,1-.32-1.23l-2.17-19.46v-1.93q0-.24.36-.24h1.05c.31,0,.52.29.62.88s.33,1.71.7,3.37a13.5,13.5,0,0,0,2.11,4.75c1,1.5,2.86,2.53,5.48,3.07Zm-52-20.22a.41.41,0,0,1-.47-.46v-23a.42.42,0,0,1,.47-.47H392c.31,0,.47.44.47,1.32a4.43,4.43,0,0,0,.93,2.61q2.12,3,6.92,3.05h23.32q7.86,0,7.86-6.51a.41.41,0,0,1,.47-.47h1.4a.41.41,0,0,1,.47.47v23c0,.31-.15.46-.47.46H432c-.32,0-.47-.15-.47-.46q0-7.39-7.74-7.39H400.19q-7.72,0-7.73,7.39a.41.41,0,0,1-.47.46Z"/><path class="cls-4" d="M478.66,231.6q0-7-8.09-7c-.86,0-1.29-.16-1.29-.47v-1.41a.42.42,0,0,1,.47-.47h29.36a.42.42,0,0,1,.47.47v1.41c0,.31-.86.47-2.58.47a7.69,7.69,0,0,0-4.74,1.64q-2.17,1.64-2.17,6.74v62.53q0,7,8.14,7c.82,0,1.23.16,1.23.47v1.41a.41.41,0,0,1-.47.47H469.63a.42.42,0,0,1-.47-.47V303c0-.31.86-.47,2.58-.47a7.65,7.65,0,0,0,4.75-1.64q2.17-1.64,2.17-6.74Z"/></g></g></g></svg>