<svg xmlns="http://www.w3.org/2000/svg" viewBox="0 0 589.74 497.43"><defs><style>.cls-1{fill:#412c3b;}.cls-2{fill:#ea4e50;}.cls-3{fill:#812626;}.cls-4{fill:#e94e50;}.cls-5{fill:#802626;}.cls-6{fill:#cc3b3b;}.cls-11,.cls-7{fill:#fff;}.cls-8{fill:#513f4d;}.cls-9{fill:#e84241;}.cls-10{fill:#efefef;}.cls-11{opacity:0.3;}</style></defs><g id="Ebene_2" data-name="Ebene 2"><g id="Ebene_1-2" data-name="Ebene 1"><path class="cls-1" d="M356.15,477c-9.94,0-20.45-2.32-30.61-4.56s-20.72-4.56-30.67-4.56-20.48,2.32-30.67,4.56S243.53,477,233.59,477a49.61,49.61,0,0,1-15.47-2.27c-15.13-4.91-26.22-17.52-37-29.72-7-7.92-13.55-15.4-21.12-20.92s-17.39-9.81-26.74-13.87c-14.81-6.43-30.12-13.08-39.34-25.75-9.11-12.52-10.73-29.07-12.29-45.08-1-10.21-2-20.78-5-30-2.83-8.71-7.84-17.15-13.15-26.09-8.34-14.05-17-28.57-17-44.81s8.62-30.77,17-44.81c5.31-8.94,10.32-17.39,13.15-26.09,3-9.21,4-19.77,5-30,1.56-16,3.18-32.56,12.29-45.08s24.53-19.31,39.34-25.74c9.36-4.06,19-8.27,26.74-13.88s14.16-13,21.12-20.91c10.73-12.2,21.83-24.81,37-29.72A49.32,49.32,0,0,1,233.59,0c9.94,0,20.45,2.31,30.62,4.55s20.71,4.57,30.66,4.57,20.48-2.32,30.67-4.57S346.21,0,356.16,0a49.26,49.26,0,0,1,15.46,2.27C386.75,7.18,397.85,19.79,408.57,32c7,7.92,13.56,15.4,21.13,20.91s17.38,9.82,26.74,13.88c14.8,6.43,30.12,13.08,39.33,25.74s10.73,29.08,12.3,45.08c1,10.22,2,20.78,5,30,2.83,8.71,7.84,17.15,13.15,26.09,8.33,14,17,28.57,17,44.81s-8.63,30.76-17,44.81c-5.31,8.94-10.32,17.38-13.15,26.09-3,9.2-4,19.77-5,30-1.57,16-3.19,32.56-12.3,45.09s-24.53,19.31-39.34,25.74c-9.35,4.06-19,8.26-26.73,13.88s-14.16,13-21.13,20.91c-10.73,12.2-21.82,24.81-36.95,29.72A49.57,49.57,0,0,1,356.15,477Zm-61.28-14.13c10.5,0,21.3,2.38,31.75,4.68S346.76,472,356.15,472a44.63,44.63,0,0,0,13.93-2c13.81-4.48,24.45-16.57,34.73-28.26,6.84-7.78,13.91-15.82,21.94-21.66s18.08-10.24,27.69-14.41c14.19-6.17,28.87-12.54,37.28-24.1s9.79-26.58,11.35-42.62c1-10.48,2.09-21.32,5.25-31.05,3-9.23,8.38-18.32,13.6-27.1,8-13.47,16.25-27.39,16.25-42.25s-8.26-28.79-16.25-42.25c-5.22-8.79-10.6-17.87-13.6-27.11-3.16-9.72-4.22-20.56-5.24-31-1.57-16-3.05-31.2-11.36-42.62s-23.09-17.93-37.28-24.09c-9.61-4.17-19.54-8.49-27.69-14.42s-15.1-13.88-21.94-21.66C394.53,23.61,383.9,11.52,370.08,7a44.31,44.31,0,0,0-13.92-2c-9.4,0-19.19,2.16-29.54,4.44s-21.25,4.68-31.75,4.68-21.29-2.38-31.74-4.68S243,5,233.59,5a44.22,44.22,0,0,0-13.92,2c-13.82,4.48-24.45,16.57-34.73,28.26C178.1,43.07,171,51.11,163,57S144.91,67.2,135.31,71.38C121.11,77.54,106.44,83.91,98,95.47S88.24,122,86.67,138.09c-1,10.48-2.08,21.32-5.24,31-3,9.24-8.39,18.32-13.6,27.11-8,13.46-16.26,27.38-16.26,42.25s8.27,28.78,16.26,42.25c5.21,8.78,10.6,17.87,13.6,27.1,3.16,9.72,4.22,20.56,5.24,31,1.57,16.05,3,31.21,11.35,42.63s23.09,17.93,37.29,24.09c9.6,4.17,19.53,8.49,27.68,14.42s15.11,13.88,21.95,21.66c10.28,11.69,20.91,23.78,34.73,28.26a44.52,44.52,0,0,0,13.92,2c9.4,0,19.18-2.15,29.54-4.43S284.38,462.85,294.87,462.85Z"/><path class="cls-1" d="M353.5,464.47c-9.67,0-19.83-2.45-29.65-4.81-9.66-2.34-19.66-4.75-29-4.75s-19.31,2.41-29,4.75-20,4.81-29.65,4.81a45.23,45.23,0,0,1-14.12-2.08c-14.48-4.7-24.79-16.9-34.75-28.69-6.49-7.69-12.63-14.95-19.71-20.1s-16.1-8.9-25.51-12.77c-14.2-5.83-28.88-11.86-37.7-24s-10-27.75-11.13-43c-.75-9.76-1.54-19.85-4.34-28.46-2.63-8.13-7.57-16.09-12.8-24.52C68,267.68,59.51,254,59.51,238.49S68,209.3,76.18,196.1c5.23-8.43,10.17-16.38,12.8-24.51,2.8-8.61,3.59-18.71,4.35-28.47,1.17-15.24,2.4-31,11.12-43S128,82,142.15,76.14c9.42-3.86,18.3-7.51,25.51-12.76S180.88,51,187.37,43.28c10-11.79,20.27-24,34.75-28.69a45,45,0,0,1,14.13-2.09c9.66,0,19.82,2.45,29.64,4.82s19.67,4.75,29,4.75,19.32-2.42,29-4.75c9.82-2.37,20-4.82,29.65-4.82a44.89,44.89,0,0,1,14.12,2.09c14.48,4.7,24.79,16.9,34.76,28.69C408.87,51,415,58.23,422.09,63.38s16.09,8.9,25.5,12.77c14.2,5.83,28.88,11.86,37.7,24s9.95,27.75,11.13,43c.76,9.76,1.54,19.86,4.34,28.47,2.64,8.13,7.58,16.09,12.81,24.51,8.19,13.2,16.67,26.85,16.67,42.39s-8.48,29.19-16.67,42.38c-5.23,8.43-10.17,16.39-12.81,24.52-2.8,8.61-3.58,18.7-4.34,28.47-1.18,15.24-2.4,31-11.13,43s-23.5,18.15-37.7,24c-9.41,3.87-18.29,7.52-25.5,12.77S408.87,426,402.38,433.69c-10,11.8-20.28,24-34.76,28.7A45.19,45.19,0,0,1,353.5,464.47Zm-58.63-17.08c10.21,0,20.65,2.52,30.75,5,9.82,2.37,19.1,4.6,27.88,4.6a37.91,37.91,0,0,0,11.8-1.71c12.44-4,21.62-14.9,31.34-26.4,6.49-7.69,13.21-15.63,21-21.32s17.67-9.78,27.08-13.64c13.83-5.68,26.9-11.05,34.48-21.46s8.55-24.3,9.71-39.14c.79-10.2,1.61-20.75,4.68-30.22,2.92-9,8.34-17.71,13.57-26.15,7.64-12.3,15.54-25,15.54-38.42s-7.9-26.12-15.54-38.42c-5.23-8.44-10.65-17.16-13.57-26.16-3.07-9.46-3.89-20-4.68-30.21-1.16-14.85-2.24-28.87-9.71-39.14S458.58,88.78,444.74,83.1c-9.41-3.86-19.13-7.86-27.08-13.64s-14.53-13.64-21-21.32c-9.72-11.5-18.89-22.36-31.34-26.4A37.61,37.61,0,0,0,353.5,20c-8.77,0-18.06,2.24-27.88,4.61-10.1,2.44-20.54,4.95-30.75,4.95s-20.64-2.51-30.74-4.95C254.3,22.26,245,20,236.25,20a37.61,37.61,0,0,0-11.8,1.72c-12.45,4-21.62,14.9-31.34,26.39-6.49,7.69-13.21,15.64-21,21.33S154.42,79.23,145,83.1c-13.84,5.68-26.91,11.05-34.48,21.46s-8.56,24.29-9.71,39.14c-.79,10.2-1.61,20.75-4.69,30.21-2.92,9-8.33,17.72-13.57,26.15C74.93,212.37,67,225.09,67,238.49s7.9,26.12,15.53,38.42c5.24,8.44,10.65,17.15,13.57,26.15,3.08,9.46,3.9,20,4.69,30.21,1.15,14.85,2.23,28.88,9.71,39.15s20.64,15.77,34.48,21.46c9.4,3.86,19.13,7.86,27.07,13.64s14.54,13.63,21,21.32c9.72,11.5,18.89,22.36,31.33,26.4a38,38,0,0,0,11.8,1.71c8.78,0,18.06-2.23,27.88-4.6C274.22,449.91,284.67,447.39,294.87,447.39Z"/><path class="cls-1" d="M350.51,450.88c-9.38,0-19.14-2.61-28.58-5.13-9.08-2.43-18.47-4.94-27.06-4.94s-18,2.51-27.06,4.94c-9.43,2.52-19.19,5.13-28.57,5.13a41,41,0,0,1-12.76-1.9c-13.81-4.49-23.28-16.26-32.43-27.64-6-7.41-11.59-14.41-18.11-19.15s-15.11-8.08-24.09-11.51c-13.55-5.19-27.57-10.55-36-22.12s-9.12-26.37-9.89-40.8c-.51-9.67-1-18.8-3.57-26.73C100,293.56,95.12,286.16,90,278.32c-8-12.3-16.38-25-16.38-39.83S81.94,211,90,198.66c5.14-7.84,10-15.24,12.41-22.71,2.57-7.94,3.06-17.07,3.57-26.73.77-14.44,1.56-29.36,9.89-40.81s22.44-16.92,36-22.11c9-3.44,17.46-6.68,24.1-11.51s12.13-11.74,18.1-19.15C203.2,44.26,212.67,32.48,226.48,28a40.7,40.7,0,0,1,12.76-1.9c9.38,0,19.14,2.61,28.57,5.13,9.09,2.43,18.48,4.93,27.06,4.93s18-2.5,27.06-4.93c9.44-2.52,19.2-5.13,28.58-5.13A40.63,40.63,0,0,1,363.26,28c13.82,4.49,23.29,16.26,32.44,27.64,6,7.41,11.59,14.41,18.1,19.15s15.12,8.07,24.09,11.51c13.56,5.19,27.58,10.55,36,22.12s9.12,26.36,9.89,40.8c.51,9.66,1,18.79,3.57,26.73,2.42,7.47,7.27,14.87,12.41,22.71,8.05,12.29,16.38,25,16.38,39.83s-8.33,27.53-16.38,39.83c-5.14,7.84-10,15.24-12.41,22.71-2.57,7.93-3.06,17.06-3.57,26.73-.77,14.43-1.56,29.36-9.89,40.8s-22.44,16.93-36,22.12c-9,3.43-17.45,6.68-24.09,11.51s-12.14,11.74-18.1,19.15c-9.15,11.38-18.62,23.15-32.44,27.64A40.92,40.92,0,0,1,350.51,450.88Zm-55.64-20.09c9.9,0,19.94,2.68,29.65,5.27,9.21,2.47,17.92,4.79,26,4.79a30.83,30.83,0,0,0,9.66-1.41c11-3.56,19.11-13.68,27.72-24.38,6.11-7.6,12.43-15.45,20-21s17.22-9.24,26.41-12.76c12.76-4.88,24.8-9.49,31.47-18.66s7.26-21.86,8-35.43c.53-9.89,1.08-20.11,4.06-29.29,2.83-8.75,8.28-17.07,13.55-25.11,7.58-11.58,14.74-22.51,14.74-34.34s-7.16-22.77-14.74-34.34c-5.27-8-10.72-16.36-13.55-25.11-3-9.18-3.53-19.4-4.06-29.29-.72-13.57-1.4-26.39-8-35.43s-18.72-13.78-31.48-18.66c-9.19-3.52-18.7-7.16-26.41-12.77s-13.9-13.37-20-21c-8.61-10.72-16.75-20.83-27.72-24.4a31.12,31.12,0,0,0-9.66-1.41c-8.07,0-16.78,2.33-26,4.79-9.71,2.6-19.75,5.28-29.65,5.28s-19.93-2.68-29.64-5.28c-9.22-2.46-17.93-4.79-26-4.79a31.12,31.12,0,0,0-9.66,1.41c-11,3.57-19.11,13.68-27.73,24.4-6.1,7.59-12.42,15.44-20,21s-17.22,9.25-26.41,12.77c-12.76,4.88-24.81,9.49-31.48,18.65s-7.26,21.87-8,35.44c-.52,9.89-1.07,20.11-4,29.29-2.84,8.75-8.29,17.06-13.55,25.1-7.58,11.58-14.75,22.52-14.75,34.35s7.17,22.76,14.75,34.34c5.26,8,10.71,16.36,13.55,25.1,3,9.18,3.53,19.41,4,29.3.72,13.57,1.4,26.39,8,35.43s18.72,13.78,31.48,18.66c9.19,3.52,18.7,7.16,26.4,12.76s13.9,13.38,20,21c8.61,10.71,16.74,20.83,27.72,24.39a30.83,30.83,0,0,0,9.66,1.41c8.06,0,16.77-2.32,26-4.79C274.94,433.47,285,430.79,294.87,430.79Z"/><polygon class="cls-2" points="46.78 381.65 0 414.43 63.41 433.08 59.68 497.43 160.42 424.07 126.34 406.96 83 381.65 46.78 381.65"/><path class="cls-3" d="M97,433.08l63.43-9a112.47,112.47,0,0,0-15.6-9.08c-5.62-2.68-18.48-8-18.48-8L111.49,417Z"/><polygon class="cls-4" points="542.97 381.65 589.74 414.43 526.33 433.08 530.06 497.43 429.32 424.07 463.41 406.96 506.74 381.65 542.97 381.65"/><path class="cls-5" d="M492.75,433.08l-63.43-9a112.47,112.47,0,0,1,15.6-9.08c5.62-2.68,18.49-8,18.49-8L478.25,417Z"/><path class="cls-6" d="M20.52,354.74S125.9,241.9,300.29,241.9,569.81,354.74,569.81,354.74l-76.47,78.34S422.47,351,295.17,351,97,433.08,97,433.08Z"/><path class="cls-7" d="M66.67,345.3,90.5,327.9l5.11,7-8,5.88,30.69,42-7.7,5.63-30.7-42-8.06,5.88Z"/><path class="cls-7" d="M156.33,360.92l-8.51,4.51-6.62-8.95L130.85,362l3.72,10.5-7.74,4.11-19.91-58.19,12.34-6.56Zm-28.27-6.8,8.12-4.31-18.46-25Z"/><path class="cls-7" d="M171.93,290.45l.6,31.14,20.61,25.77-9.47,3.41-15.48-20,.71,25.29-8.41,3-.53-33-19.38-24.38,9.31-3.34L164.24,317l-.64-23.56Z"/><path class="cls-7" d="M185.77,286.85,195,284.5l14.92,58.88-9.25,2.34Z"/><path class="cls-7" d="M242,275.46c9.3-1.11,14.6,3.77,15.77,13.5l.22,1.89-9,1.08-.3-2.5c-.52-4.4-2.43-5.74-5.44-5.38s-4.56,2.11-4,6.51c.49,4.13,2.92,6.9,6,9.33a55.57,55.57,0,0,0,5,3.69,30.56,30.56,0,0,1,9.07,9.4,18.38,18.38,0,0,1,2.27,7.33c1.17,9.73-3,15.74-12.31,16.85s-14.78-3.74-15.94-13.48l-.45-3.7,9-1.07.52,4.31c.52,4.39,2.59,5.63,5.61,5.27s4.73-2.05,4.21-6.45c-.49-4.13-2.92-6.9-6-9.41-1.54-1.22-3.17-2.42-4.9-3.7a28.76,28.76,0,0,1-9.14-9.31,18.49,18.49,0,0,1-2.28-7.33C228.73,282.56,232.73,276.57,242,275.46Z"/><path class="cls-7" d="M280.35,298.85l13.1-.38.25,8.67-13.09.39.52,17.78,16.48-.49.25,8.67-26,.77-1.78-60.71,26-.77.25,8.68-16.47.48Z"/><path class="cls-7" d="M326.74,334.74c-.06-.44-.21-.8-.28-1.15a9.46,9.46,0,0,1-.24-3.32c0-.78,0-1.82.09-3l.55-9.53c.32-5.63-1.37-7.82-5.79-8.07l-3.29-.19-1.43,24.69-9.53-.55L310.33,273l14.37.83c10,.58,13.86,5.41,13.32,14.76l-.28,4.77c-.36,6.23-2.67,10.18-6.94,11.94,4.73,2.27,5.94,6.95,5.57,13.27l-.54,9.35c-.17,3-.2,5,.62,7.43Zm-7.39-52.58-1.07,18.63L322,301c3.55.21,5.81-1.23,6.09-6.08l.34-6c.26-4.41-1.11-6.32-4.49-6.51Z"/><path class="cls-7" d="M360.27,327.42l15-47.76,8.65,1.39-18.87,58.48-14-2.25.36-61.45,9.51,1.52Z"/><path class="cls-7" d="M396.4,284.11l9.25,2.33-14.82,58.89L381.57,343Z"/><path class="cls-7" d="M434.08,335.72l-2.7,7.6c-3.29,9.24-9.7,12.77-18.53,9.63s-11.57-9.92-8.29-19.16L415.13,304c3.29-9.23,9.7-12.76,18.53-9.62s11.57,9.92,8.29,19.15l-2,5.56-8.51-3,2.18-6.13c1.48-4.17.21-6.28-2.65-7.3s-5.19-.18-6.67,4l-11,30.9c-1.48,4.17-.18,6.2,2.68,7.22s5.16.26,6.64-3.91l2.91-8.17Z"/><path class="cls-7" d="M458.56,333.53l11.64,6-4,7.71-11.64-6L446.42,357l14.65,7.57-4,7.71L434,360.37l27.87-54L485,318.35l-4,7.71-14.64-7.56Z"/><path class="cls-7" d="M510.69,334.69c7.54,5.57,8.06,12.75,2.23,20.64l-1.14,1.53-7.25-5.36,1.49-2c2.63-3.56,2.16-5.85-.28-7.66s-4.76-1.58-7.39,2c-2.48,3.35-2.61,7-2,10.91a52.64,52.64,0,0,0,1.1,6.1,30.57,30.57,0,0,1,.16,13.07,18.46,18.46,0,0,1-3.37,6.9c-5.82,7.88-13,9.39-20.52,3.82s-8.19-12.85-2.36-20.74l2.21-3,7.26,5.37-2.58,3.48c-2.63,3.56-2,5.88.47,7.69s4.86,1.75,7.49-1.81c2.47-3.35,2.6-7,2.07-11-.29-1.94-.65-3.93-1-6.05a28.8,28.8,0,0,1-.28-13.05,18.58,18.58,0,0,1,3.37-6.89C496.14,330.73,503.16,329.12,510.69,334.69Z"/><path class="cls-1" d="M426.67,106.06s-76.62-21-131.8-33.52c-53.55,12.52-131.79,33.52-131.79,33.52l-16,36.56,32,54.09H410.67l32-54.09Z"/><path class="cls-8" d="M179.08,196.71v41.14c0,14.73,51.67,26.67,115.41,26.67S409.9,252.58,409.9,237.85V196.71Z"/><rect class="cls-9" x="195.89" y="166.96" width="199.68" height="60.15" rx="20.71"/><rect class="cls-10" x="220.06" y="166.96" width="30.28" height="30.11"/><rect class="cls-10" x="250.35" y="197.07" width="30.25" height="30.07"/><rect class="cls-10" x="280.6" y="166.96" width="30.27" height="30.11"/><rect class="cls-10" x="310.87" y="197.07" width="30.27" height="30.07"/><rect class="cls-10" x="341.13" y="166.96" width="30.27" height="30.11"/><path class="cls-11" d="M295.73,72.73l-.86-.19c-53.55,12.52-131.79,33.52-131.79,33.52l-16,36.56,32,54.09v41.14c0,14.73,51.67,26.67,115.41,26.67h1.24Z"/></g></g></svg>